<?xml version="1.0" encoding="utf-8"?>
<!-- Generator: Adobe Illustrator 16.0.0, SVG Export Plug-In . SVG Version: 6.00 Build 0)  -->
<!DOCTYPE svg PUBLIC "-//W3C//DTD SVG 1.1//EN" "http://www.w3.org/Graphics/SVG/1.1/DTD/svg11.dtd">
<svg version="1.1" id="Layer_1" xmlns="http://www.w3.org/2000/svg" xmlns:xlink="http://www.w3.org/1999/xlink" x="0px" y="0px"
	 width="112.089px" height="84.39px" viewBox="0 0 112.089 84.39" enable-background="new 0 0 112.089 84.39" xml:space="preserve">
<g>
	<path fill="#0C436A" d="M109.655,0H2.433C1.089,0,0,1.09,0,2.434v63.425c0,1.344,1.089,2.434,2.433,2.434h41.813
		c-0.06,0.784-0.124,1.626-0.188,2.466v0.002c-0.258,3.236-0.525,6.59-0.554,6.809c-0.159,0.915-0.229,1.526-0.611,2.227h-0.002
		c-0.008,0.017-0.021,0.035-0.029,0.053c-0.233,0.414-0.583,0.867-1.131,1.435c-0.363,0.366-0.721,0.692-0.943,0.907
		c-0.183,0.178-0.335,0.349-0.432,0.51c-0.159,0.236-0.232,0.45-0.227,0.641c0-0.002-0.001-0.002-0.001-0.004
		c-0.002,0.032,0.004,0.087,0.019,0.149c0.007,0.026,0.017,0.05,0.027,0.075c0.005,0.013,0.007,0.023,0.013,0.037l-0.002-0.002
		c0.001,0.002,0.003,0.005,0.004,0.008c0.009,0.018,0.018,0.034,0.028,0.053c0.008,0.014,0.015,0.025,0.024,0.039
		c0.007,0.012,0.015,0.021,0.023,0.032L40.26,83.73c0,0,0.021,0.027,0.034,0.046l-0.006,0.008c0.005,0.004,0.015,0.007,0.021,0.011
		c0.006,0.007,0.002,0.005,0.01,0.014c0.016,0.016,0.056,0.037,0.079,0.057s0.052,0.037,0.078,0.056
		c0.026,0.018,0.036,0.032,0.069,0.05c0.007,0.004,0.021,0.008,0.027,0.012c0.024,0.014,0.044,0.029,0.069,0.043
		c0.002,0,0.003,0.002,0.005,0.003s0.006,0.002,0.009,0.003c0.084,0.041,0.19,0.076,0.31,0.109c0.536,0.166,1.355,0.262,2.45,0.262
		c1.663,0,24.861-0.027,25.76-0.027c0.141,0,0.324-0.007,0.522-0.019c1.01-0.043,1.905-0.178,2.376-0.437
		c0.105-0.059,0.191-0.121,0.265-0.187c0.014-0.013,0.024-0.026,0.037-0.039c0.309-0.306,0.27-0.679-0.152-1.089
		c-0.004-0.004-0.008-0.008-0.013-0.013c-0.034-0.032-0.066-0.064-0.105-0.097c-0.231-0.204-0.537-0.403-0.785-0.576
		c-0.105-0.078-0.203-0.151-0.302-0.226c-0.414-0.314-0.835-0.652-1.221-1.013c-0.06-0.057-0.119-0.113-0.174-0.169
		c-0.16-0.158-0.308-0.322-0.445-0.489c-0.06-0.072-0.113-0.143-0.166-0.213c-0.15-0.205-0.29-0.412-0.39-0.628l-0.004,0.001
		c-0.047-0.092-0.09-0.184-0.128-0.275c-0.001-0.002-0.002-0.004-0.003-0.006c-0.036-0.091-0.069-0.184-0.101-0.277
		c-0.033-0.102-0.062-0.207-0.09-0.313c-0.021-0.089-0.042-0.177-0.061-0.257c-0.033-0.157-0.064-0.319-0.094-0.49
		c-0.013-0.077-0.201-2.066-0.425-4.461c-0.002-0.011-0.002-0.021-0.003-0.033c-0.065-0.824-0.124-1.559-0.199-2.421h0.002
		l-0.026-0.28c-0.052-0.597-0.113-1.271-0.19-2.077h42.354c1.344,0,2.434-1.09,2.434-2.434V2.434C112.089,1.09,110.999,0,109.655,0z
		"/>
	<rect x="4.38" y="4.542" fill="#FFFFFF" width="103.167" height="58.396"/>
</g>
</svg>
