<?xml version="1.0" encoding="utf-8"?>
<!-- Generator: Adobe Illustrator 15.0.0, SVG Export Plug-In . SVG Version: 6.00 Build 0)  -->
<!DOCTYPE svg PUBLIC "-//W3C//DTD SVG 1.1//EN" "http://www.w3.org/Graphics/SVG/1.1/DTD/svg11.dtd">
<svg version="1.1" id="Layer_1" xmlns="http://www.w3.org/2000/svg" xmlns:xlink="http://www.w3.org/1999/xlink" x="0px" y="0px"
	 width="171.691px" height="207.941px" viewBox="0 0 171.691 207.941" enable-background="new 0 0 171.691 207.941"
	 xml:space="preserve">
<g>
	<path fill="#84BC41" d="M68.314,171.403c-3.894,0-7.56-1.521-10.317-4.291L4.251,113.114C1.512,110.381,0,106.735,0,102.842
		s1.53-7.568,4.3-10.317L93.108,4.12c5.472-5.509,15.08-5.49,20.591,0.038l53.744,53.991c2.747,2.749,4.26,6.406,4.249,10.309
		c-0.01,3.894-1.536,7.551-4.308,10.29l-88.788,88.395C75.845,169.89,72.189,171.403,68.314,171.403z M103.37,7.607
		c-1.813,0-3.516,0.709-4.791,1.983L9.762,98.002c-1.306,1.295-2.025,3.018-2.025,4.849c0,1.813,0.71,3.515,1.986,4.791
		l53.755,54.01c2.569,2.567,7.049,2.578,9.655,0.01l88.803-88.403c1.303-1.295,2.011-3.004,2.022-4.818
		c0-1.824-0.71-3.536-1.996-4.819l-53.745-54C106.924,8.326,105.203,7.607,103.37,7.607z"/>
	<path fill="#666666" d="M49.53,121.927l31.26-31.255c1.132-1.144,1.132-2.978,0-4.13c-1.147-1.134-2.99-1.134-4.141,0
		L45.394,117.79c-1.136,1.153-1.136,2.996,0,4.14C46.546,123.081,48.388,123.081,49.53,121.927z"/>
	<path fill="#666666" d="M73.417,79.182c-1.144-1.144-2.985-1.144-4.141,0l-31.243,31.256c-1.146,1.145-1.146,2.983,0,4.121
		c1.133,1.141,2.983,1.141,4.116,0l31.268-31.258C74.552,82.167,74.552,80.314,73.417,79.182z"/>
	<path fill="#84BC41" d="M123.922,180.454l-62.325-0.02c-5.971,0-10.829,6.181-10.829,13.759
		c-0.01,7.587,4.858,13.729,10.839,13.748l62.315-0.02c5.999,0.028,10.846-6.143,10.846-13.72
		C134.768,186.615,129.931,180.434,123.922,180.454z"/>
	<path fill="#FFFFFF" d="M70.317,179.338l45.648-45.637l-10.717-25.322c-3.392-7.947-1.908-16.743,3.668-21.923l0.35-0.357
		l1.823-1.332l3.26-1.605l3.024-1.304l1.775-0.549c1.283-0.283,1.944-0.396,2.625-0.445c0.05,0,0.099,0,0.135,0
		c8.512,0,15.286,4.904,18.51,12.463l16.355,38.667c3.043,7.141,2.117,15.183-2.361,20.475l-19.258,21.543
		c-3.298,3.479-7.614,5.271-12.599,5.313l-0.252,0.017H70.317V179.338z"/>
	<path fill="#84BC41" d="M107.857,150.01l-23.528,23.527h37.978c0.065,0,0.131-0.018,0.199-0.018
		c3.097-0.029,6.027-0.966,8.322-3.386l19.096-21.325c0.039-0.027,0.039-0.058,0.059-0.093c2.965-3.507,3.704-9.167,1.443-14.469
		l-12.771-30.264l-1.306-3.081l-0.936-2.183l-1.332-3.117c-2.468-5.781-7.685-9.27-12.664-8.967
		c-0.072,0.009-0.16,0.019-0.227,0.019c-0.396,0.028-0.782,0.094-1.169,0.179c-0.137,0.039-0.287,0.049-0.408,0.095
		c-0.436,0.114-0.891,0.247-1.304,0.426c-0.02,0-0.038,0.01-0.048,0.01l-3.686,1.578c-0.029,0-0.05,0.019-0.05,0.019
		c-0.433,0.19-0.831,0.425-1.225,0.654c-0.104,0.065-0.219,0.15-0.331,0.226c-0.323,0.228-0.637,0.472-0.929,0.729
		c-0.057,0.056-0.121,0.093-0.178,0.141c-3.668,3.402-4.752,9.59-2.287,15.375l1.342,3.106l0.927,2.184l5.462,12.943l4.525,10.725
		l-14.827,14.847C107.954,149.926,107.906,149.972,107.857,150.01z"/>
	<g>
		<path fill="#666666" d="M124.557,68.722l-3.271-3.25c-2.22,2.076-4.396,3.505-6.538,4.269c-2.153,0.767-4.348,0.975-6.575,0.673
			l0.008-4.395c1.682,0.369,3.432,0.282,5.265-0.255c1.813-0.539,3.555-1.513,5.196-2.918l-9.506-9.403
			c-1.322,0.785-2.628,1.483-3.94,2.106c-1.321,0.625-2.605,1.038-3.882,1.238c-1.27,0.197-2.535,0.142-3.779-0.2
			c-1.27-0.348-2.496-1.123-3.694-2.313c-1.011-0.982-1.73-2.097-2.145-3.307c-0.418-1.2-0.568-2.467-0.454-3.763
			c0.132-1.312,0.497-2.617,1.126-3.93c0.639-1.321,1.51-2.589,2.625-3.826l-3.459-3.421l1.709-1.739l3.469,3.422
			c1.796-1.559,3.639-2.684,5.557-3.373c1.908-0.71,3.779-1.031,5.593-0.957l-0.074,4.167c-1.407-0.046-2.815,0.15-4.214,0.596
			c-1.42,0.454-2.789,1.209-4.111,2.296l8.521,8.429c1.601-0.908,3.111-1.654,4.536-2.239c1.42-0.587,2.781-0.927,4.066-1.049
			c1.281-0.113,2.501,0,3.627,0.37c1.125,0.367,2.19,1.067,3.192,2.049c1.155,1.145,1.978,2.373,2.484,3.675
			c0.494,1.314,0.71,2.676,0.635,4.044c-0.078,1.382-0.407,2.75-1.002,4.12c-0.617,1.353-1.456,2.654-2.522,3.894l3.287,3.23
			L124.557,68.722z M97.002,50.844c1.132,1.125,2.416,1.54,3.845,1.237c1.444-0.292,3.093-0.953,4.933-1.964l-8.069-7.975
			c-0.595,0.708-1.098,1.417-1.509,2.154c-0.409,0.756-0.664,1.492-0.76,2.237c-0.103,0.766-0.02,1.505,0.22,2.241
			C95.896,49.512,96.351,50.203,97.002,50.844z M120.424,51.62c-1.218-1.19-2.542-1.664-3.986-1.398
			c-1.453,0.245-3.146,0.907-5.103,1.975l8.996,8.882c1.284-1.606,1.965-3.25,2.014-4.943
			C122.393,54.444,121.756,52.943,120.424,51.62z"/>
	</g>
</g>
</svg>
