<?xml version="1.0" encoding="utf-8"?>
<!-- Generator: Adobe Illustrator 15.0.0, SVG Export Plug-In . SVG Version: 6.00 Build 0)  -->
<!DOCTYPE svg PUBLIC "-//W3C//DTD SVG 1.1//EN" "http://www.w3.org/Graphics/SVG/1.1/DTD/svg11.dtd">
<svg version="1.1" id="Layer_1" xmlns="http://www.w3.org/2000/svg" xmlns:xlink="http://www.w3.org/1999/xlink" x="0px" y="0px"
	 width="152.172px" height="216.622px" viewBox="0 0 152.172 216.622" enable-background="new 0 0 152.172 216.622"
	 xml:space="preserve">
<g>
	<path fill="#666666" d="M104.023,0h-80.5C10.599-0.021,0.049,10.539,0.028,23.463L0,193.096C0,206.042,10.569,216.6,23.472,216.6
		l80.524,0.021c12.924,0,23.482-10.56,23.482-23.484l0.029-169.634C127.509,10.58,116.949,0,104.023,0z M56.562,17.499H80.66v4.295
		H56.562V17.499z M45.044,16.146h6.965v6.98h-6.965V16.146z M63.748,206.399c-4.722,0-8.568-3.816-8.568-8.549
		c0-4.754,3.847-8.59,8.568-8.59c4.73,0,8.568,3.836,8.568,8.59C72.316,202.583,68.479,206.399,63.748,206.399z M119.766,179.815
		L8.62,179.793L8.638,34.162l111.155,0.021L119.766,179.815z"/>
	<path fill="#FFFFFF" d="M151.039,187.715c-2.238,0-4.43-1.1-5.736-3.118l-26.381-40.765c-2.047-3.164-1.143-7.389,2.021-9.437
		c3.168-2.049,7.39-1.142,9.438,2.021l26.381,40.766c2.047,3.164,1.143,7.389-2.021,9.436
		C153.594,187.361,152.309,187.715,151.039,187.715z"/>
	<path fill="#FFFFFF" d="M122.504,74.528c10.92,16.8,6.078,39.387-10.814,50.305c-16.851,10.898-39.373,6.084-50.308-10.774
		C50.455,97.176,55.309,74.626,72.15,63.731C89.04,52.772,111.592,57.644,122.504,74.528z"/>
	<path fill="#FFFFFF" d="M134.746,66.613c15.303,23.544,8.527,55.181-15.145,70.47c-23.602,15.252-55.137,8.51-70.458-15.092
		c-15.298-23.664-8.498-55.24,15.085-70.511C87.879,36.149,119.475,42.97,134.746,66.613z"/>
	<path fill="#84BC41" d="M91.975,134.917c-13.858,0-26.636-6.92-34.159-18.533c-5.909-9.127-7.906-20.003-5.631-30.623
		c2.276-10.618,8.551-19.727,17.649-25.611c6.602-4.276,14.229-6.543,22.063-6.543c13.879,0,26.655,6.963,34.188,18.614
		c5.888,9.066,7.884,19.904,5.62,30.521c-2.275,10.641-8.563,19.766-17.708,25.672C107.412,132.67,99.789,134.917,91.975,134.917z
		 M91.896,62.139c-6.184,0-12.207,1.77-17.43,5.169c-7.201,4.655-12.149,11.832-13.948,20.224c-1.801,8.411-0.23,17.001,4.435,24.22
		c5.951,9.166,16.056,14.654,27.021,14.654c6.174,0,12.188-1.771,17.399-5.15c7.228-4.674,12.199-11.873,13.998-20.305
		c1.791-8.389,0.22-16.939-4.435-24.099C112.973,67.625,102.872,62.139,91.896,62.139z"/>
	<rect x="110.001" y="162.693" fill="#FFFFFF" width="21.634" height="17.122"/>
	<path fill="#84BC41" d="M143.02,177.667c-3.004,0-5.944-1.472-7.705-4.194l-18.354-28.375c-2.745-4.233-1.533-9.925,2.714-12.666
		c4.263-2.742,9.921-1.552,12.675,2.723l18.354,28.376c2.743,4.236,1.53,9.922-2.714,12.666
		C146.448,177.189,144.719,177.667,143.02,177.667z"/>
</g>
</svg>
