<?xml version="1.0" encoding="utf-8"?>
<!-- Generator: Adobe Illustrator 16.0.0, SVG Export Plug-In . SVG Version: 6.00 Build 0)  -->
<!DOCTYPE svg PUBLIC "-//W3C//DTD SVG 1.1//EN" "http://www.w3.org/Graphics/SVG/1.1/DTD/svg11.dtd">
<svg version="1.1" id="Layer_1" xmlns="http://www.w3.org/2000/svg" xmlns:xlink="http://www.w3.org/1999/xlink" x="0px" y="0px"
	 width="215.19px" height="198.898px" viewBox="0 0 215.19 198.898" enable-background="new 0 0 215.19 198.898"
	 xml:space="preserve">
<g>
	<g>
		<polygon fill="#FFFFFF" points="19.184,90.772 27.635,66.133 180.159,65.187 195.403,90.772 		"/>
		<path fill="#F69436" d="M195.422,92.694c-0.005,0.001-0.013,0-0.02,0H19.184c-0.621,0-1.203-0.3-1.564-0.805
			c-0.36-0.505-0.455-1.154-0.254-1.741l8.451-24.639c0.266-0.773,0.989-1.293,1.807-1.298l152.523-0.946c0.004,0,0.008,0,0.012,0
			c0.677,0,1.305,0.356,1.651,0.938l15.118,25.374c0.261,0.328,0.417,0.744,0.417,1.196
			C197.345,91.834,196.485,92.694,195.422,92.694z M21.875,88.851H192.02l-12.949-21.735l-150.06,0.931L21.875,88.851z"/>
	</g>
	<g>
		<path fill="#FFFFFF" d="M195.403,185.424c0,4.942-4.971,8.934-11.105,8.934h-154c-6.135,0-11.113-3.991-11.113-8.934V90.772
			h176.219V185.424z"/>
		<path fill="#F69436" d="M184.297,198.898h-154c-8.633,0-15.652-6.051-15.652-13.474v-92.12l4.94-7.069h173.382l6.982,14.948
			v84.241C199.95,192.847,192.93,198.898,184.297,198.898z M23.742,95.312v90.113c0,2.335,3.055,4.395,6.556,4.395h154
			c3.494,0,6.563-2.06,6.563-4.395V95.312H23.742z"/>
	</g>
	<path fill="#666666" d="M37.516,175.705c-0.41,0-0.743-0.334-0.743-0.744v-24.19c0-0.41,0.333-0.743,0.743-0.743
		s0.743,0.333,0.743,0.743v24.19C38.259,175.371,37.926,175.705,37.516,175.705z"/>
	<path fill="#666666" d="M47.05,175.705c-0.41,0-0.743-0.334-0.743-0.744v-24.19c0-0.41,0.333-0.743,0.743-0.743
		s0.743,0.333,0.743,0.743v24.19C47.793,175.371,47.46,175.705,47.05,175.705z"/>
	<path fill="#666666" d="M56.613,175.705c-0.41,0-0.743-0.334-0.743-0.744v-24.19c0-0.41,0.333-0.743,0.743-0.743
		s0.743,0.333,0.743,0.743v24.19C57.356,175.371,57.023,175.705,56.613,175.705z"/>
	<path fill="#666666" d="M66.155,175.705c-0.41,0-0.743-0.334-0.743-0.744v-24.19c0-0.41,0.333-0.743,0.743-0.743
		s0.743,0.333,0.743,0.743v24.19C66.898,175.371,66.565,175.705,66.155,175.705z"/>
	<path fill="#666666" d="M75.708,175.705c-0.41,0-0.743-0.334-0.743-0.744v-24.19c0-0.41,0.333-0.743,0.743-0.743
		s0.743,0.333,0.743,0.743v24.19C76.452,175.371,76.119,175.705,75.708,175.705z"/>
	<path fill="#F69436" d="M213.405,156.037c-0.779,0-1.495-0.514-1.716-1.301l-17.047-60.638c-0.267-0.948,0.286-1.933,1.234-2.199
		c0.947-0.268,1.933,0.286,2.199,1.234l17.047,60.638c0.267,0.947-0.286,1.933-1.234,2.199
		C213.727,156.015,213.565,156.037,213.405,156.037z"/>
	<path fill="#F69436" d="M1.785,155.668c-0.16,0-0.322-0.021-0.483-0.067c-0.948-0.266-1.501-1.251-1.234-2.199L17.112,92.77
		c0.267-0.949,1.254-1.5,2.199-1.234c0.948,0.267,1.501,1.251,1.234,2.199L3.5,154.367C3.28,155.154,2.564,155.668,1.785,155.668z"
		/>
	<g>
		<path fill="#F69436" d="M151.155,143.203c24.731,1.881,25.149,23.227,33.135,32.508c-3.443,0.854-18.003-4.557-17.51-11.104
			c0.675-8.314-5.042-12.343-13.135-14.676c-9.754-2.736-30.117-4.577-31.639-16.534
			C127.191,143.058,141.374,141.507,151.155,143.203"/>
		<path fill="#F69436" d="M174.556,158.225c-3.785-8.093-7.968-10.354-7.968-10.354c-5.352-6.472-17.191-8.17-20.946-21.477
			c6.03,8.476,12.778,11.212,21.319,15.46c5.313,2.68,11.514,12.58,11.477,24.736C176.678,162.473,175.557,160.376,174.556,158.225"
			/>
	</g>
	<g>
		<defs>
			<polygon id="SVGID_1_" points="159.407,80.6 48.864,80.6 50.75,-1.275 161.301,-1.275 			"/>
		</defs>
		<clipPath id="SVGID_2_">
			<use xlink:href="#SVGID_1_"  overflow="visible"/>
		</clipPath>
		<g clip-path="url(#SVGID_2_)">
			<path fill="#666666" d="M136.899,1.252l-57.662-0.01C69.964,1.205,62.419,8.8,62.372,18.033l-0.027,138.314
				c0,9.227,7.564,16.773,16.828,16.773l57.672,0.018c9.271,0.018,16.836-7.51,16.818-16.791l0.055-138.262
				C153.717,8.825,146.135,1.243,136.899,1.252z M108.012,165.884c-3.382,0-6.105-2.791-6.15-6.165
				c0.035-3.372,2.744-6.16,6.18-6.123c3.345,0,6.105,2.751,6.126,6.123C114.137,163.093,111.414,165.847,108.012,165.884z
				 M148.122,144.535l-79.606-0.018L68.544,29.28l79.64,0.035L148.122,144.535z"/>
			<polygon fill="#FFFFFF" points="99.407,13.785 116.672,13.792 116.69,16.875 99.407,16.837 			"/>
		</g>
	</g>
	<rect x="68.196" y="29.664" fill="#FFFFFF" width="79.752" height="55.421"/>
</g>
</svg>
