<?xml version="1.0" encoding="utf-8"?>
<!-- Generator: Adobe Illustrator 16.0.0, SVG Export Plug-In . SVG Version: 6.00 Build 0)  -->
<!DOCTYPE svg PUBLIC "-//W3C//DTD SVG 1.1//EN" "http://www.w3.org/Graphics/SVG/1.1/DTD/svg11.dtd">
<svg version="1.1" id="Layer_1" xmlns="http://www.w3.org/2000/svg" xmlns:xlink="http://www.w3.org/1999/xlink" x="0px" y="0px"
	 width="62.845px" height="105.76px" viewBox="0 0 62.845 105.76" enable-background="new 0 0 62.845 105.76" xml:space="preserve">
<g>
	<path fill="#0C436A" d="M62.845,98.926c0,3.773-2.982,6.834-6.661,6.834H6.661C2.982,105.76,0,102.699,0,98.926V6.835
		C0,3.061,2.982,0,6.661,0h49.522c3.679,0,6.661,3.061,6.661,6.835V98.926z"/>
	<path fill="#FFFFFF" d="M58.626,44.357c0,0.705-0.593,1.277-1.322,1.277H5.552c-0.729,0-1.323-0.572-1.323-1.277V5.831
		c0-0.706,0.594-1.278,1.323-1.278h51.752c0.729,0,1.322,0.572,1.322,1.278V44.357z"/>
	<circle fill="#FFFFFF" cx="31.451" cy="75.031" r="19.712"/>
	<circle fill="#0C436A" cx="31.451" cy="75.031" r="7.53"/>
</g>
</svg>
