<?xml version="1.0" encoding="utf-8"?>
<!-- Generator: Adobe Illustrator 16.0.0, SVG Export Plug-In . SVG Version: 6.00 Build 0)  -->
<!DOCTYPE svg PUBLIC "-//W3C//DTD SVG 1.1//EN" "http://www.w3.org/Graphics/SVG/1.1/DTD/svg11.dtd">
<svg version="1.1" id="Layer_1" xmlns="http://www.w3.org/2000/svg" xmlns:xlink="http://www.w3.org/1999/xlink" x="0px" y="0px"
	 width="165px" height="108px" viewBox="0 0 165 108" enable-background="new 0 0 165 108" xml:space="preserve">
<g>
	<defs>
		<rect id="SVGID_1_" x="0.705" y="0.203" width="163.606" height="107.335"/>
	</defs>
	<clipPath id="SVGID_2_">
		<use xlink:href="#SVGID_1_"  overflow="visible"/>
	</clipPath>
	<path clip-path="url(#SVGID_2_)" fill="#F78E1E" d="M110.666,23.489c36.159-1.464,40.484,26.768,53.646,37.823
		c-4.856,1.666-26.85-3.211-27.256-11.981c-0.5-11.109-9.465-15.564-21.598-17.313c-14.592-2.108-44.423-1.292-48.68-16.925
		C75.958,27.08,96.219,22.769,110.666,23.489"/>
	<path clip-path="url(#SVGID_2_)" fill="#F78E1E" d="M150.409,38.234c-6.974-10.255-13.5-12.596-13.5-12.596
		c-8.981-7.817-26.578-8.196-34.429-25.436c10.35,10.413,20.697,12.966,33.939,17.311c8.253,2.701,19.063,15.001,21.167,31.304
		C154.245,43.595,152.249,40.92,150.409,38.234"/>
	<path clip-path="url(#SVGID_2_)" fill="#666766" d="M160.105,86.668c-0.306,0-0.59-0.055-0.854-0.159
		c-0.264-0.108-0.49-0.258-0.683-0.45c-0.19-0.191-0.341-0.421-0.454-0.69c-0.107-0.271-0.164-0.572-0.164-0.901
		c0-0.321,0.054-0.615,0.154-0.884c0.106-0.269,0.252-0.504,0.441-0.697c0.188-0.195,0.414-0.349,0.676-0.459
		c0.263-0.11,0.558-0.166,0.884-0.166c0.33,0,0.63,0.058,0.897,0.178c0.265,0.115,0.488,0.272,0.676,0.473
		c0.186,0.197,0.328,0.433,0.43,0.7c0.099,0.271,0.15,0.558,0.15,0.864c0,0.312-0.054,0.601-0.158,0.867
		c-0.109,0.267-0.259,0.497-0.443,0.693c-0.191,0.193-0.416,0.347-0.68,0.462C160.714,86.611,160.421,86.668,160.105,86.668
		 M160.116,86.385c0.284,0,0.541-0.049,0.769-0.149c0.226-0.103,0.418-0.239,0.577-0.408c0.152-0.174,0.271-0.377,0.359-0.609
		c0.084-0.228,0.125-0.477,0.125-0.742c0-0.261-0.039-0.507-0.123-0.741c-0.08-0.236-0.199-0.438-0.357-0.616
		c-0.161-0.175-0.355-0.312-0.586-0.418c-0.229-0.104-0.493-0.157-0.783-0.157c-0.295,0-0.555,0.051-0.78,0.152
		c-0.229,0.101-0.419,0.238-0.577,0.41c-0.157,0.17-0.273,0.374-0.355,0.608c-0.081,0.234-0.119,0.484-0.119,0.753
		c0,0.265,0.042,0.514,0.125,0.75c0.086,0.232,0.207,0.437,0.37,0.61c0.163,0.169,0.358,0.306,0.585,0.408
		C159.573,86.336,159.829,86.385,160.116,86.385 M159.265,83.158h0.852c0.25,0,0.467,0.049,0.648,0.147
		c0.178,0.096,0.264,0.272,0.264,0.526c0,0.207-0.059,0.358-0.184,0.456c-0.123,0.101-0.262,0.162-0.409,0.188
		c0.093,0.045,0.169,0.116,0.235,0.217c0.064,0.104,0.123,0.207,0.174,0.317c0.053,0.124,0.105,0.247,0.152,0.366
		c0.047,0.122,0.102,0.237,0.162,0.345h-0.43l-0.294-0.673c-0.071-0.148-0.14-0.261-0.209-0.338
		c-0.069-0.079-0.163-0.119-0.288-0.119h-0.291v1.13h-0.383V83.158z M160.105,84.298c0.155,0,0.282-0.031,0.384-0.096
		c0.101-0.066,0.151-0.175,0.151-0.333c0-0.267-0.185-0.398-0.556-0.398h-0.438v0.827H160.105z"/>
	<path clip-path="url(#SVGID_2_)" fill="#666766" d="M46.507,76.501c-1.768,0.308-3.188,0.654-4.283,1.04
		c-1.266,0.468-2.364,1.107-3.274,1.925c-0.885,0.778-1.458,1.786-1.705,3.121c-0.097,0.459-0.14,0.857-0.14,1.223
		c0.001,0.865,0.231,1.426,0.634,1.825c0.595,0.565,1.651,0.825,3.341,0.631c1.418-0.164,2.764-0.604,4.027-1.312
		c1.241-0.704,2.457-1.53,3.634-2.457c0.45-2.2,0.902-4.392,1.352-6.574C49.079,76.077,47.886,76.265,46.507,76.501 M35.06,91.849
		c-1.059-0.313-1.938-0.865-2.644-1.639c-0.682-0.76-1.14-1.766-1.398-2.957c-0.116-0.587-0.172-1.193-0.172-1.825
		c0-0.671,0.061-1.351,0.194-2.062c0.396-2.099,1.177-3.97,2.333-5.538c1.186-1.583,2.819-2.868,4.856-3.847
		c1.792-0.87,3.844-1.521,6.118-1.938c2.122-0.381,4.36-0.705,6.74-0.954c0.034-0.146,0.067-0.288,0.101-0.433
		c0.1-0.507,0.148-0.974,0.149-1.357c-0.001-0.373-0.035-0.67-0.115-0.916c-0.182-0.534-0.471-0.895-0.896-1.152
		c-0.432-0.283-1.032-0.477-1.824-0.556c-0.828-0.076-1.71-0.097-2.616-0.057c-1.044,0.047-2.34,0.249-3.869,0.64
		c-1.539,0.397-3.102,0.939-4.69,1.636c-0.035,0.013-0.07,0.026-0.105,0.04c-0.376,0.022-0.751,0.045-1.126,0.067
		c0-0.004,1.128-3.924,1.771-4.576c1.807-1.854,7.226-2.988,8.874-3.027c1.998-0.054,3.665,0.057,5.023,0.314
		c1.373,0.266,2.578,0.793,3.572,1.576c0.974,0.773,1.635,1.812,1.926,3.038c0.124,0.542,0.18,1.131,0.178,1.753
		c0,0.821-0.108,1.694-0.315,2.677c-1.306,6.197-2.611,12.34-3.916,18.67c-2.013,0.204-4.022,0.538-6.031,0.771
		c0.152-0.75,0.306-1.501,0.455-2.251c-0.186,0.138-0.374,0.279-0.58,0.432c-0.774,0.596-1.519,1.095-2.228,1.484
		c-0.97,0.551-1.883,1.003-2.758,1.359c-0.925,0.368-2.091,0.642-3.564,0.845C37.265,92.239,36.096,92.175,35.06,91.849"/>
	<path clip-path="url(#SVGID_2_)" fill="#666766" d="M56.412,89.364c0.272-1.394,0.546-2.784,0.817-4.171
		c-0.001-0.016,5.586-5.988,10.158-10.767c4.57-4.797,7.855-8.427,7.855-8.434c-4.894,0.146-9.789,0.326-14.679,0.539
		c0.312-1.591,0.625-3.178,0.94-4.762c7.45-0.241,14.901-0.426,22.354-0.562c-0.262,1.274-0.525,2.548-0.787,3.824
		c0,0.003-5.555,5.295-10.865,10.81c-5.312,5.516-7.249,7.994-7.247,7.981c4.889-0.364,9.784-0.652,14.679-0.868
		c-0.288,1.411-0.576,2.823-0.863,4.237c-0.032,0.146-0.064,0.293-0.096,0.439C71.248,88.011,63.824,88.588,56.412,89.364"/>
	<path clip-path="url(#SVGID_2_)" fill="#666766" d="M103.791,70.569c0.086-0.6,0.13-1.146,0.115-1.636
		c-0.008-0.257-0.03-0.486-0.07-0.717c-0.097-0.762-0.351-1.373-0.699-1.855c-0.402-0.521-0.951-0.916-1.693-1.192
		c-0.721-0.275-1.748-0.414-3.056-0.391c-1.267,0.025-2.368,0.204-3.28,0.529c-0.945,0.341-1.835,0.812-2.673,1.436
		c-0.854,0.643-1.538,1.345-2.047,2.104c-0.404,0.593-0.745,1.26-1.018,2.007C94.178,70.715,98.985,70.621,103.791,70.569
		 M95.214,87.644h-0.039c-4.874,0.107-8.582-0.886-10.924-3.204c-1.612-1.579-2.417-3.678-2.478-6.213
		c-0.032-1.157,0.095-2.403,0.359-3.744c0.854-4.223,2.871-7.672,6.037-10.252c3.146-2.579,6.922-3.941,11.197-4.014
		c1.93-0.036,3.604,0.16,5.047,0.625c1.441,0.457,2.665,1.214,3.598,2.233c0.947,1.033,1.573,2.291,1.883,3.746
		c0.118,0.517,0.172,1.069,0.189,1.654c0.03,1.091-0.094,2.304-0.359,3.634c-0.187,0.913-0.372,1.827-0.561,2.739
		c-6.922,0.003-13.847,0.112-20.771,0.336c-0.135,0.771-0.188,1.462-0.171,2.107c0.041,1.574,0.524,2.782,1.375,3.671
		c1.294,1.337,3.308,1.982,6.29,1.929c1.061-0.021,2.127-0.146,3.194-0.357c1.069-0.224,2.041-0.49,2.955-0.813
		c0.953-0.337,1.771-0.665,2.435-0.985c0.672-0.312,1.239-0.609,1.69-0.876c0.054-0.033,0.108-0.066,0.165-0.1h1.281
		c0,0.002-0.834,3.395-1.086,3.765c-0.66,1.02-1.784,1.668-2.91,2.215C101.17,86.91,98.029,87.582,95.214,87.644"/>
	<path clip-path="url(#SVGID_2_)" fill="#666766" d="M152.79,73.133c0.086-0.607,0.131-1.159,0.115-1.654
		c-0.007-0.26-0.029-0.493-0.07-0.728c-0.098-0.771-0.353-1.389-0.707-1.876c-0.407-0.529-0.963-0.929-1.714-1.207
		c-0.729-0.28-1.77-0.419-3.094-0.396c-1.28,0.025-2.396,0.205-3.319,0.535c-0.957,0.345-1.857,0.821-2.706,1.453
		c-0.864,0.651-1.558,1.36-2.07,2.132c-0.41,0.599-0.756,1.274-1.031,2.03C143.06,73.281,147.925,73.186,152.79,73.133
		 M144.106,90.415h-0.039c-4.933,0.109-8.687-0.896-11.057-3.242c-1.632-1.6-2.445-3.724-2.507-6.287
		c-0.033-1.172,0.097-2.435,0.363-3.793c0.864-4.274,2.905-7.764,6.109-10.376c3.186-2.611,7.009-3.99,11.335-4.064
		c1.953-0.036,3.649,0.164,5.109,0.635c1.459,0.462,2.695,1.229,3.642,2.26c0.959,1.046,1.591,2.321,1.906,3.793
		c0.118,0.522,0.173,1.083,0.19,1.675c0.031,1.103-0.096,2.332-0.365,3.678c-0.188,0.925-0.377,1.848-0.565,2.773
		c-7.007,0.002-14.016,0.111-21.026,0.339c-0.136,0.781-0.191,1.48-0.173,2.135c0.042,1.591,0.532,2.814,1.392,3.715
		c1.311,1.351,3.348,2.004,6.367,1.952c1.074-0.023,2.154-0.149,3.234-0.363c1.081-0.227,2.065-0.496,2.99-0.822
		c0.964-0.341,1.793-0.674,2.464-0.998c0.683-0.316,1.253-0.617,1.71-0.887c0.056-0.034,0.111-0.066,0.167-0.1h1.298
		c0.002,0.001-0.843,3.435-1.098,3.81c-0.668,1.031-1.807,1.688-2.947,2.242C150.137,89.674,146.957,90.354,144.106,90.415"/>
	<path clip-path="url(#SVGID_2_)" fill="#666766" d="M115.641,58.388c2.491-0.378,3.8-0.741,6.369-1.554l-6.47,30.725
		c-2.025-0.099-4.053-0.184-6.078-0.256c0,0,2.184-8.664,3.883-16.863C115.046,62.231,115.641,58.385,115.641,58.388"/>
	<path clip-path="url(#SVGID_2_)" fill="#666766" d="M126.199,55.154c2.609-0.985,6.739-3.192,6.74-3.197l-7.5,36.278
		c-2.021-0.149-4.044-0.289-6.065-0.411c0-0.002,1.82-7.826,3.928-17.865C125.406,59.916,126.2,55.147,126.199,55.154"/>
	<path clip-path="url(#SVGID_2_)" fill="#666766" d="M25.397,97.578l7.416-36.196l-6.443,1.217l-0.145,0.835
		c-0.783-0.436-1.582-0.799-2.39-1.069c-1.125-0.37-2.463-0.552-4.046-0.552c-1.669,0-3.384,0.36-5.078,1.044
		c-1.699,0.688-3.25,1.66-4.643,2.917c-1.447,1.317-2.737,2.918-3.791,4.771c-1.074,1.891-1.86,4.037-2.34,6.439
		c-0.348,1.728-0.524,3.309-0.524,4.755c0,2.383,0.475,4.397,1.479,6.018c1.59,2.588,4.282,3.916,7.763,3.898
		c1.972,0,3.712-0.275,5.176-0.843c1.04-0.398,2.134-0.967,3.24-1.679l-0.196,1.001c-0.092,0.479-0.699,2.737-0.92,3.363
		 M22.204,83.484c-1.15,0.781-2.362,1.391-3.69,1.84c-1.401,0.47-2.699,0.693-3.878,0.693c-2.32-0.017-3.57-0.709-4.228-2.104
		c-0.356-0.78-0.566-1.819-0.566-3.111c0-1.058,0.143-2.297,0.416-3.693c0.653-3.231,1.837-5.655,3.503-7.315
		c1.702-1.673,3.627-2.478,5.972-2.478c0.973,0,1.927,0.116,2.859,0.344c0.821,0.199,1.679,0.525,2.603,0.979L22.204,83.484z"/>
	<path clip-path="url(#SVGID_2_)" fill="#666766" d="M26.649,91.213c-9.64,2.624-17.953,5.83-24.543,9.468l-1.4,6.857
		c6.515-3.802,14.884-7.161,24.674-9.912l0.026-0.096l1.28-6.31L26.649,91.213z"/>
</g>
</svg>
