<?xml version="1.0" encoding="utf-8"?>
<!-- Generator: Adobe Illustrator 16.0.0, SVG Export Plug-In . SVG Version: 6.00 Build 0)  -->
<!DOCTYPE svg PUBLIC "-//W3C//DTD SVG 1.1//EN" "http://www.w3.org/Graphics/SVG/1.1/DTD/svg11.dtd">
<svg version="1.1" id="Layer_1" xmlns="http://www.w3.org/2000/svg" xmlns:xlink="http://www.w3.org/1999/xlink" x="0px" y="0px"
	 width="60.989px" height="127.117px" viewBox="0 0 60.989 127.117" enable-background="new 0 0 60.989 127.117"
	 xml:space="preserve">
<g>
	<path fill="#0C436A" d="M60.989,116.442c0,5.896-4.779,10.675-10.675,10.675h-39.58c-5.896,0-10.675-4.779-10.675-10.675V10.675
		C0.06,4.779,4.839,0,10.734,0h39.58c5.896,0,10.675,4.779,10.675,10.675V116.442z"/>
	<rect x="1.236" y="10.236" fill="#0C436A" width="58.276" height="107.519"/>
	<path fill="#0C436A" d="M50.314,0h-39.58C4.839,0,0.06,4.779,0.06,10.675v105.767c0,5.896,4.779,10.675,10.675,10.675h39.58
		c5.896,0,10.675-4.779,10.675-10.675V10.675C60.989,4.779,56.21,0,50.314,0z M59.513,116.524c0,4.989-4.044,9.033-9.033,9.033
		h-39.91c-4.989,0-9.033-4.044-9.033-9.033V10.593c0-4.989,4.044-9.033,9.033-9.033h39.91c4.989,0,9.033,4.044,9.033,9.033V116.524z
		"/>
	<rect x="3.316" y="13.193" fill="#FFFFFF" width="53.979" height="96.351"/>
	<circle fill="#FFFFFF" cx="46.055" cy="6.847" r="2.019"/>
	<g>
		<circle fill="#FFFFFF" cx="13.733" cy="120.104" r="0.221"/>
		<circle fill="#FFFFFF" cx="14.428" cy="120.104" r="0.221"/>
		<circle fill="#FFFFFF" cx="15.122" cy="120.104" r="0.221"/>
		<circle fill="#FFFFFF" cx="15.816" cy="120.104" r="0.221"/>
		<circle fill="#FFFFFF" cx="16.511" cy="120.104" r="0.221"/>
		<circle fill="#FFFFFF" cx="17.205" cy="120.104" r="0.221"/>
		<circle fill="#FFFFFF" cx="17.899" cy="120.104" r="0.22"/>
		<circle fill="#FFFFFF" cx="18.593" cy="120.104" r="0.22"/>
		<circle fill="#FFFFFF" cx="19.287" cy="120.104" r="0.221"/>
		<circle fill="#FFFFFF" cx="19.981" cy="120.104" r="0.221"/>
		<circle fill="#FFFFFF" cx="20.676" cy="120.104" r="0.221"/>
		<circle fill="#FFFFFF" cx="21.37" cy="120.104" r="0.221"/>
		<circle fill="#FFFFFF" cx="22.064" cy="120.104" r="0.221"/>
		<circle fill="#FFFFFF" cx="22.758" cy="120.104" r="0.22"/>
		<circle fill="#FFFFFF" cx="23.453" cy="120.104" r="0.22"/>
		<circle fill="#FFFFFF" cx="24.146" cy="120.104" r="0.221"/>
		<circle fill="#FFFFFF" cx="24.841" cy="120.104" r="0.221"/>
		<circle fill="#FFFFFF" cx="25.535" cy="120.104" r="0.221"/>
		<circle fill="#FFFFFF" cx="26.229" cy="120.104" r="0.221"/>
		<circle fill="#FFFFFF" cx="26.924" cy="120.104" r="0.221"/>
		<circle fill="#FFFFFF" cx="27.618" cy="120.104" r="0.221"/>
		<circle fill="#FFFFFF" cx="28.312" cy="120.104" r="0.22"/>
		<circle fill="#FFFFFF" cx="29.006" cy="120.104" r="0.22"/>
		<circle fill="#FFFFFF" cx="29.701" cy="120.104" r="0.22"/>
		<circle fill="#FFFFFF" cx="30.395" cy="120.104" r="0.221"/>
		<circle fill="#FFFFFF" cx="31.089" cy="120.104" r="0.221"/>
		<circle fill="#FFFFFF" cx="31.783" cy="120.104" r="0.221"/>
		<circle fill="#FFFFFF" cx="32.478" cy="120.104" r="0.221"/>
		<circle fill="#FFFFFF" cx="33.172" cy="120.104" r="0.221"/>
		<circle fill="#FFFFFF" cx="33.866" cy="120.104" r="0.22"/>
		<circle fill="#FFFFFF" cx="34.56" cy="120.104" r="0.22"/>
		<circle fill="#FFFFFF" cx="35.254" cy="120.104" r="0.221"/>
		<circle fill="#FFFFFF" cx="35.948" cy="120.104" r="0.221"/>
		<circle fill="#FFFFFF" cx="36.643" cy="120.104" r="0.221"/>
		<circle fill="#FFFFFF" cx="37.337" cy="120.104" r="0.221"/>
		<circle fill="#FFFFFF" cx="38.031" cy="120.104" r="0.221"/>
		<circle fill="#FFFFFF" cx="38.725" cy="120.104" r="0.22"/>
		<circle fill="#FFFFFF" cx="39.419" cy="120.104" r="0.22"/>
		<circle fill="#FFFFFF" cx="13.733" cy="120.792" r="0.221"/>
		<circle fill="#FFFFFF" cx="14.428" cy="120.792" r="0.221"/>
		<circle fill="#FFFFFF" cx="15.122" cy="120.792" r="0.221"/>
		<circle fill="#FFFFFF" cx="15.816" cy="120.792" r="0.221"/>
		<circle fill="#FFFFFF" cx="16.511" cy="120.792" r="0.221"/>
		<circle fill="#FFFFFF" cx="17.205" cy="120.792" r="0.221"/>
		<circle fill="#FFFFFF" cx="17.899" cy="120.792" r="0.22"/>
		<circle fill="#FFFFFF" cx="18.593" cy="120.792" r="0.22"/>
		<circle fill="#FFFFFF" cx="19.287" cy="120.792" r="0.221"/>
		<circle fill="#FFFFFF" cx="19.981" cy="120.792" r="0.221"/>
		<circle fill="#FFFFFF" cx="20.676" cy="120.792" r="0.221"/>
		<circle fill="#FFFFFF" cx="21.37" cy="120.792" r="0.221"/>
		<circle fill="#FFFFFF" cx="22.064" cy="120.792" r="0.221"/>
		<circle fill="#FFFFFF" cx="22.758" cy="120.792" r="0.22"/>
		<circle fill="#FFFFFF" cx="23.453" cy="120.792" r="0.22"/>
		<circle fill="#FFFFFF" cx="24.146" cy="120.792" r="0.221"/>
		<circle fill="#FFFFFF" cx="24.841" cy="120.792" r="0.221"/>
		<circle fill="#FFFFFF" cx="25.535" cy="120.792" r="0.221"/>
		<circle fill="#FFFFFF" cx="26.229" cy="120.792" r="0.221"/>
		<circle fill="#FFFFFF" cx="26.924" cy="120.792" r="0.221"/>
		<circle fill="#FFFFFF" cx="27.618" cy="120.792" r="0.221"/>
		<circle fill="#FFFFFF" cx="28.312" cy="120.792" r="0.22"/>
		<circle fill="#FFFFFF" cx="29.006" cy="120.792" r="0.22"/>
		<circle fill="#FFFFFF" cx="29.701" cy="120.792" r="0.22"/>
		<circle fill="#FFFFFF" cx="30.395" cy="120.792" r="0.221"/>
		<circle fill="#FFFFFF" cx="31.089" cy="120.792" r="0.221"/>
		<circle fill="#FFFFFF" cx="31.783" cy="120.792" r="0.221"/>
		<circle fill="#FFFFFF" cx="32.478" cy="120.792" r="0.221"/>
		<circle fill="#FFFFFF" cx="33.172" cy="120.792" r="0.221"/>
		<circle fill="#FFFFFF" cx="33.866" cy="120.792" r="0.22"/>
		<circle fill="#FFFFFF" cx="34.56" cy="120.792" r="0.22"/>
		<circle fill="#FFFFFF" cx="35.254" cy="120.792" r="0.221"/>
		<circle fill="#FFFFFF" cx="35.948" cy="120.792" r="0.221"/>
		<circle fill="#FFFFFF" cx="36.643" cy="120.792" r="0.221"/>
		<circle fill="#FFFFFF" cx="37.337" cy="120.792" r="0.221"/>
		<circle fill="#FFFFFF" cx="38.031" cy="120.792" r="0.221"/>
		<circle fill="#FFFFFF" cx="38.725" cy="120.792" r="0.22"/>
		<circle fill="#FFFFFF" cx="39.419" cy="120.792" r="0.22"/>
		<circle fill="#FFFFFF" cx="13.733" cy="121.479" r="0.221"/>
		<circle fill="#FFFFFF" cx="14.428" cy="121.479" r="0.221"/>
		<circle fill="#FFFFFF" cx="15.122" cy="121.479" r="0.221"/>
		<circle fill="#FFFFFF" cx="15.816" cy="121.479" r="0.221"/>
		<circle fill="#FFFFFF" cx="16.511" cy="121.479" r="0.221"/>
		<circle fill="#FFFFFF" cx="17.205" cy="121.479" r="0.221"/>
		<circle fill="#FFFFFF" cx="17.899" cy="121.479" r="0.22"/>
		<circle fill="#FFFFFF" cx="18.593" cy="121.479" r="0.22"/>
		<circle fill="#FFFFFF" cx="19.287" cy="121.479" r="0.221"/>
		<circle fill="#FFFFFF" cx="19.981" cy="121.479" r="0.221"/>
		<circle fill="#FFFFFF" cx="20.676" cy="121.479" r="0.221"/>
		<circle fill="#FFFFFF" cx="21.37" cy="121.479" r="0.221"/>
		<circle fill="#FFFFFF" cx="22.064" cy="121.479" r="0.221"/>
		<circle fill="#FFFFFF" cx="22.758" cy="121.479" r="0.22"/>
		<circle fill="#FFFFFF" cx="23.453" cy="121.479" r="0.22"/>
		<circle fill="#FFFFFF" cx="24.146" cy="121.479" r="0.221"/>
		<circle fill="#FFFFFF" cx="24.841" cy="121.479" r="0.221"/>
		<circle fill="#FFFFFF" cx="25.535" cy="121.479" r="0.221"/>
		<circle fill="#FFFFFF" cx="26.229" cy="121.479" r="0.221"/>
		<circle fill="#FFFFFF" cx="26.924" cy="121.479" r="0.221"/>
		<circle fill="#FFFFFF" cx="27.618" cy="121.479" r="0.221"/>
		<circle fill="#FFFFFF" cx="28.312" cy="121.479" r="0.22"/>
		<circle fill="#FFFFFF" cx="29.006" cy="121.479" r="0.22"/>
		<circle fill="#FFFFFF" cx="29.701" cy="121.479" r="0.22"/>
		<circle fill="#FFFFFF" cx="30.395" cy="121.479" r="0.221"/>
		<circle fill="#FFFFFF" cx="31.089" cy="121.479" r="0.221"/>
		<circle fill="#FFFFFF" cx="31.783" cy="121.479" r="0.221"/>
		<circle fill="#FFFFFF" cx="32.478" cy="121.479" r="0.221"/>
		<circle fill="#FFFFFF" cx="33.172" cy="121.479" r="0.221"/>
		<circle fill="#FFFFFF" cx="33.866" cy="121.479" r="0.22"/>
		<circle fill="#FFFFFF" cx="34.56" cy="121.479" r="0.22"/>
		<circle fill="#FFFFFF" cx="35.254" cy="121.479" r="0.221"/>
		<circle fill="#FFFFFF" cx="35.948" cy="121.479" r="0.221"/>
		<circle fill="#FFFFFF" cx="36.643" cy="121.479" r="0.221"/>
		<circle fill="#FFFFFF" cx="37.337" cy="121.479" r="0.221"/>
		<circle fill="#FFFFFF" cx="38.031" cy="121.479" r="0.221"/>
		<circle fill="#FFFFFF" cx="38.725" cy="121.479" r="0.22"/>
		<circle fill="#FFFFFF" cx="39.419" cy="121.479" r="0.22"/>
		<circle fill="#FFFFFF" cx="13.733" cy="122.166" r="0.221"/>
		<circle fill="#FFFFFF" cx="14.428" cy="122.166" r="0.221"/>
		<circle fill="#FFFFFF" cx="15.122" cy="122.166" r="0.221"/>
		<circle fill="#FFFFFF" cx="15.816" cy="122.166" r="0.221"/>
		<circle fill="#FFFFFF" cx="16.511" cy="122.166" r="0.221"/>
		<circle fill="#FFFFFF" cx="17.205" cy="122.166" r="0.221"/>
		<circle fill="#FFFFFF" cx="17.899" cy="122.166" r="0.22"/>
		<circle fill="#FFFFFF" cx="18.593" cy="122.166" r="0.22"/>
		<circle fill="#FFFFFF" cx="19.287" cy="122.166" r="0.221"/>
		<circle fill="#FFFFFF" cx="19.981" cy="122.166" r="0.221"/>
		<circle fill="#FFFFFF" cx="20.676" cy="122.166" r="0.221"/>
		<circle fill="#FFFFFF" cx="21.37" cy="122.166" r="0.221"/>
		<circle fill="#FFFFFF" cx="22.064" cy="122.166" r="0.221"/>
		<circle fill="#FFFFFF" cx="22.758" cy="122.166" r="0.22"/>
		<circle fill="#FFFFFF" cx="23.453" cy="122.166" r="0.22"/>
		<circle fill="#FFFFFF" cx="24.146" cy="122.166" r="0.221"/>
		<circle fill="#FFFFFF" cx="24.841" cy="122.166" r="0.221"/>
		<circle fill="#FFFFFF" cx="25.535" cy="122.166" r="0.221"/>
		<circle fill="#FFFFFF" cx="26.229" cy="122.166" r="0.221"/>
		<circle fill="#FFFFFF" cx="26.924" cy="122.166" r="0.221"/>
		<circle fill="#FFFFFF" cx="27.618" cy="122.166" r="0.221"/>
		<circle fill="#FFFFFF" cx="28.312" cy="122.166" r="0.22"/>
		<circle fill="#FFFFFF" cx="29.006" cy="122.166" r="0.22"/>
		<circle fill="#FFFFFF" cx="29.701" cy="122.166" r="0.22"/>
		<circle fill="#FFFFFF" cx="30.395" cy="122.166" r="0.221"/>
		<circle fill="#FFFFFF" cx="31.089" cy="122.166" r="0.221"/>
		<circle fill="#FFFFFF" cx="31.783" cy="122.166" r="0.221"/>
		<circle fill="#FFFFFF" cx="32.478" cy="122.166" r="0.221"/>
		<circle fill="#FFFFFF" cx="33.172" cy="122.166" r="0.221"/>
		<circle fill="#FFFFFF" cx="33.866" cy="122.166" r="0.22"/>
		<circle fill="#FFFFFF" cx="34.56" cy="122.166" r="0.22"/>
		<circle fill="#FFFFFF" cx="35.254" cy="122.166" r="0.221"/>
		<circle fill="#FFFFFF" cx="35.948" cy="122.166" r="0.221"/>
		<circle fill="#FFFFFF" cx="36.643" cy="122.166" r="0.221"/>
		<circle fill="#FFFFFF" cx="37.337" cy="122.166" r="0.221"/>
		<circle fill="#FFFFFF" cx="38.031" cy="122.166" r="0.221"/>
		<circle fill="#FFFFFF" cx="38.725" cy="122.166" r="0.22"/>
		<circle fill="#FFFFFF" cx="39.419" cy="122.166" r="0.22"/>
		<circle fill="#FFFFFF" cx="40.077" cy="120.104" r="0.221"/>
		<circle fill="#FFFFFF" cx="40.771" cy="120.104" r="0.221"/>
		<circle fill="#FFFFFF" cx="41.466" cy="120.104" r="0.221"/>
		<circle fill="#FFFFFF" cx="42.16" cy="120.104" r="0.221"/>
		<circle fill="#FFFFFF" cx="42.854" cy="120.104" r="0.22"/>
		<circle fill="#FFFFFF" cx="43.548" cy="120.104" r="0.22"/>
		<circle fill="#FFFFFF" cx="44.242" cy="120.104" r="0.221"/>
		<circle fill="#FFFFFF" cx="44.937" cy="120.104" r="0.221"/>
		<circle fill="#FFFFFF" cx="45.631" cy="120.104" r="0.221"/>
		<circle fill="#FFFFFF" cx="46.325" cy="120.104" r="0.221"/>
		<circle fill="#FFFFFF" cx="47.02" cy="120.104" r="0.221"/>
		<circle fill="#FFFFFF" cx="40.077" cy="120.792" r="0.221"/>
		<circle fill="#FFFFFF" cx="40.771" cy="120.792" r="0.221"/>
		<circle fill="#FFFFFF" cx="41.466" cy="120.792" r="0.221"/>
		<circle fill="#FFFFFF" cx="42.16" cy="120.792" r="0.221"/>
		<circle fill="#FFFFFF" cx="42.854" cy="120.792" r="0.22"/>
		<circle fill="#FFFFFF" cx="43.548" cy="120.792" r="0.22"/>
		<circle fill="#FFFFFF" cx="44.242" cy="120.792" r="0.221"/>
		<circle fill="#FFFFFF" cx="44.937" cy="120.792" r="0.221"/>
		<circle fill="#FFFFFF" cx="45.631" cy="120.792" r="0.221"/>
		<circle fill="#FFFFFF" cx="46.325" cy="120.792" r="0.221"/>
		<circle fill="#FFFFFF" cx="47.02" cy="120.792" r="0.221"/>
		<circle fill="#FFFFFF" cx="40.077" cy="121.479" r="0.221"/>
		<circle fill="#FFFFFF" cx="40.771" cy="121.479" r="0.221"/>
		<circle fill="#FFFFFF" cx="41.466" cy="121.479" r="0.221"/>
		<circle fill="#FFFFFF" cx="42.16" cy="121.479" r="0.221"/>
		<circle fill="#FFFFFF" cx="42.854" cy="121.479" r="0.22"/>
		<circle fill="#FFFFFF" cx="43.548" cy="121.479" r="0.22"/>
		<circle fill="#FFFFFF" cx="44.242" cy="121.479" r="0.221"/>
		<circle fill="#FFFFFF" cx="44.937" cy="121.479" r="0.221"/>
		<circle fill="#FFFFFF" cx="45.631" cy="121.479" r="0.221"/>
		<circle fill="#FFFFFF" cx="46.325" cy="121.479" r="0.221"/>
		<circle fill="#FFFFFF" cx="47.02" cy="121.479" r="0.221"/>
		<circle fill="#FFFFFF" cx="40.077" cy="122.166" r="0.221"/>
		<circle fill="#FFFFFF" cx="40.771" cy="122.166" r="0.221"/>
		<circle fill="#FFFFFF" cx="41.466" cy="122.166" r="0.221"/>
		<circle fill="#FFFFFF" cx="42.16" cy="122.166" r="0.221"/>
		<circle fill="#FFFFFF" cx="42.854" cy="122.166" r="0.22"/>
		<circle fill="#FFFFFF" cx="43.548" cy="122.166" r="0.22"/>
		<circle fill="#FFFFFF" cx="44.242" cy="122.166" r="0.221"/>
		<circle fill="#FFFFFF" cx="44.937" cy="122.166" r="0.221"/>
		<circle fill="#FFFFFF" cx="45.631" cy="122.166" r="0.221"/>
		<circle fill="#FFFFFF" cx="46.325" cy="122.166" r="0.221"/>
		<circle fill="#FFFFFF" cx="47.02" cy="122.166" r="0.221"/>
	</g>
	<path fill="#FFFFFF" d="M50.479,125.681h-39.91c-5.049,0-9.156-4.107-9.156-9.156V10.593c0-5.049,4.107-9.156,9.156-9.156h39.91
		c5.049,0,9.156,4.107,9.156,9.156v105.932C59.636,121.573,55.528,125.681,50.479,125.681z M10.569,1.683
		c-4.913,0-8.91,3.997-8.91,8.91v105.932c0,4.913,3.997,8.91,8.91,8.91h39.91c4.913,0,8.909-3.997,8.909-8.91V10.593
		c0-4.913-3.996-8.91-8.909-8.91H10.569z"/>
	<g>
		<g>
			<circle fill="#FFFFFF" cx="13.733" cy="5.883" r="0.221"/>
			<circle fill="#FFFFFF" cx="14.428" cy="5.883" r="0.221"/>
			<circle fill="#FFFFFF" cx="15.122" cy="5.883" r="0.221"/>
			<circle fill="#FFFFFF" cx="15.816" cy="5.883" r="0.221"/>
			<circle fill="#FFFFFF" cx="16.511" cy="5.883" r="0.221"/>
			<circle fill="#FFFFFF" cx="17.205" cy="5.883" r="0.221"/>
			<circle fill="#FFFFFF" cx="17.899" cy="5.883" r="0.22"/>
			<circle fill="#FFFFFF" cx="18.593" cy="5.883" r="0.22"/>
			<circle fill="#FFFFFF" cx="19.287" cy="5.883" r="0.221"/>
			<circle fill="#FFFFFF" cx="19.981" cy="5.883" r="0.221"/>
			<circle fill="#FFFFFF" cx="20.676" cy="5.883" r="0.221"/>
			<circle fill="#FFFFFF" cx="21.37" cy="5.883" r="0.221"/>
			<circle fill="#FFFFFF" cx="22.064" cy="5.883" r="0.221"/>
			<circle fill="#FFFFFF" cx="22.758" cy="5.883" r="0.22"/>
			<circle fill="#FFFFFF" cx="23.453" cy="5.883" r="0.22"/>
			<circle fill="#FFFFFF" cx="24.146" cy="5.883" r="0.221"/>
			<circle fill="#FFFFFF" cx="24.841" cy="5.883" r="0.221"/>
			<circle fill="#FFFFFF" cx="25.535" cy="5.883" r="0.221"/>
			<circle fill="#FFFFFF" cx="26.229" cy="5.883" r="0.221"/>
			<circle fill="#FFFFFF" cx="26.924" cy="5.883" r="0.221"/>
			<circle fill="#FFFFFF" cx="27.618" cy="5.883" r="0.221"/>
			<circle fill="#FFFFFF" cx="28.312" cy="5.883" r="0.22"/>
			<circle fill="#FFFFFF" cx="29.006" cy="5.883" r="0.22"/>
			<circle fill="#FFFFFF" cx="29.701" cy="5.883" r="0.22"/>
			<circle fill="#FFFFFF" cx="30.395" cy="5.883" r="0.221"/>
			<circle fill="#FFFFFF" cx="31.089" cy="5.883" r="0.221"/>
			<circle fill="#FFFFFF" cx="31.783" cy="5.883" r="0.221"/>
			<circle fill="#FFFFFF" cx="32.478" cy="5.883" r="0.221"/>
			<circle fill="#FFFFFF" cx="33.172" cy="5.883" r="0.221"/>
			<circle fill="#FFFFFF" cx="33.866" cy="5.883" r="0.22"/>
			<circle fill="#FFFFFF" cx="34.56" cy="5.883" r="0.22"/>
			<circle fill="#FFFFFF" cx="35.254" cy="5.883" r="0.221"/>
			<circle fill="#FFFFFF" cx="35.948" cy="5.883" r="0.221"/>
			<circle fill="#FFFFFF" cx="36.643" cy="5.883" r="0.221"/>
			<circle fill="#FFFFFF" cx="37.337" cy="5.883" r="0.221"/>
			<circle fill="#FFFFFF" cx="38.031" cy="5.883" r="0.221"/>
			<circle fill="#FFFFFF" cx="38.725" cy="5.883" r="0.22"/>
			<circle fill="#FFFFFF" cx="39.419" cy="5.883" r="0.22"/>
		</g>
		<g>
			<circle fill="#FFFFFF" cx="13.733" cy="6.57" r="0.221"/>
			<circle fill="#FFFFFF" cx="14.428" cy="6.57" r="0.221"/>
			<circle fill="#FFFFFF" cx="15.122" cy="6.57" r="0.221"/>
			<circle fill="#FFFFFF" cx="15.816" cy="6.57" r="0.221"/>
			<circle fill="#FFFFFF" cx="16.511" cy="6.57" r="0.221"/>
			<circle fill="#FFFFFF" cx="17.205" cy="6.57" r="0.221"/>
			<circle fill="#FFFFFF" cx="17.899" cy="6.57" r="0.22"/>
			<circle fill="#FFFFFF" cx="18.593" cy="6.57" r="0.22"/>
			<circle fill="#FFFFFF" cx="19.287" cy="6.57" r="0.221"/>
			<circle fill="#FFFFFF" cx="19.981" cy="6.57" r="0.221"/>
			<circle fill="#FFFFFF" cx="20.676" cy="6.57" r="0.221"/>
			<circle fill="#FFFFFF" cx="21.37" cy="6.57" r="0.221"/>
			<circle fill="#FFFFFF" cx="22.064" cy="6.57" r="0.221"/>
			<circle fill="#FFFFFF" cx="22.758" cy="6.57" r="0.22"/>
			<circle fill="#FFFFFF" cx="23.453" cy="6.57" r="0.22"/>
			<circle fill="#FFFFFF" cx="24.146" cy="6.57" r="0.221"/>
			<circle fill="#FFFFFF" cx="24.841" cy="6.57" r="0.221"/>
			<circle fill="#FFFFFF" cx="25.535" cy="6.57" r="0.221"/>
			<circle fill="#FFFFFF" cx="26.229" cy="6.57" r="0.221"/>
			<circle fill="#FFFFFF" cx="26.924" cy="6.57" r="0.221"/>
			<circle fill="#FFFFFF" cx="27.618" cy="6.57" r="0.221"/>
			<circle fill="#FFFFFF" cx="28.312" cy="6.57" r="0.22"/>
			<circle fill="#FFFFFF" cx="29.006" cy="6.57" r="0.22"/>
			<circle fill="#FFFFFF" cx="29.701" cy="6.57" r="0.22"/>
			<circle fill="#FFFFFF" cx="30.395" cy="6.57" r="0.221"/>
			<circle fill="#FFFFFF" cx="31.089" cy="6.57" r="0.221"/>
			<circle fill="#FFFFFF" cx="31.783" cy="6.57" r="0.221"/>
			<circle fill="#FFFFFF" cx="32.478" cy="6.57" r="0.221"/>
			<circle fill="#FFFFFF" cx="33.172" cy="6.57" r="0.221"/>
			<circle fill="#FFFFFF" cx="33.866" cy="6.57" r="0.22"/>
			<circle fill="#FFFFFF" cx="34.56" cy="6.57" r="0.22"/>
			<circle fill="#FFFFFF" cx="35.254" cy="6.57" r="0.221"/>
			<circle fill="#FFFFFF" cx="35.948" cy="6.57" r="0.221"/>
			<circle fill="#FFFFFF" cx="36.643" cy="6.57" r="0.221"/>
			<circle fill="#FFFFFF" cx="37.337" cy="6.57" r="0.221"/>
			<circle fill="#FFFFFF" cx="38.031" cy="6.57" r="0.221"/>
			<circle fill="#FFFFFF" cx="38.725" cy="6.57" r="0.22"/>
			<circle fill="#FFFFFF" cx="39.419" cy="6.57" r="0.22"/>
		</g>
		<g>
			<circle fill="#FFFFFF" cx="13.733" cy="7.257" r="0.221"/>
			<circle fill="#FFFFFF" cx="14.428" cy="7.257" r="0.221"/>
			<circle fill="#FFFFFF" cx="15.122" cy="7.257" r="0.221"/>
			<circle fill="#FFFFFF" cx="15.816" cy="7.257" r="0.221"/>
			<circle fill="#FFFFFF" cx="16.511" cy="7.257" r="0.221"/>
			<circle fill="#FFFFFF" cx="17.205" cy="7.257" r="0.221"/>
			<circle fill="#FFFFFF" cx="17.899" cy="7.257" r="0.22"/>
			<circle fill="#FFFFFF" cx="18.593" cy="7.257" r="0.22"/>
			<circle fill="#FFFFFF" cx="19.287" cy="7.257" r="0.221"/>
			<circle fill="#FFFFFF" cx="19.981" cy="7.257" r="0.221"/>
			<circle fill="#FFFFFF" cx="20.676" cy="7.257" r="0.221"/>
			<circle fill="#FFFFFF" cx="21.37" cy="7.257" r="0.221"/>
			<circle fill="#FFFFFF" cx="22.064" cy="7.257" r="0.221"/>
			<circle fill="#FFFFFF" cx="22.758" cy="7.257" r="0.22"/>
			<circle fill="#FFFFFF" cx="23.453" cy="7.257" r="0.22"/>
			<circle fill="#FFFFFF" cx="24.146" cy="7.257" r="0.221"/>
			<circle fill="#FFFFFF" cx="24.841" cy="7.257" r="0.221"/>
			<circle fill="#FFFFFF" cx="25.535" cy="7.257" r="0.221"/>
			<circle fill="#FFFFFF" cx="26.229" cy="7.257" r="0.221"/>
			<circle fill="#FFFFFF" cx="26.924" cy="7.257" r="0.221"/>
			<circle fill="#FFFFFF" cx="27.618" cy="7.257" r="0.221"/>
			<circle fill="#FFFFFF" cx="28.312" cy="7.257" r="0.22"/>
			<circle fill="#FFFFFF" cx="29.006" cy="7.257" r="0.22"/>
			<circle fill="#FFFFFF" cx="29.701" cy="7.257" r="0.22"/>
			<circle fill="#FFFFFF" cx="30.395" cy="7.257" r="0.221"/>
			<circle fill="#FFFFFF" cx="31.089" cy="7.257" r="0.221"/>
			<circle fill="#FFFFFF" cx="31.783" cy="7.257" r="0.221"/>
			<circle fill="#FFFFFF" cx="32.478" cy="7.257" r="0.221"/>
			<circle fill="#FFFFFF" cx="33.172" cy="7.257" r="0.221"/>
			<circle fill="#FFFFFF" cx="33.866" cy="7.257" r="0.22"/>
			<circle fill="#FFFFFF" cx="34.56" cy="7.257" r="0.22"/>
			<circle fill="#FFFFFF" cx="35.254" cy="7.257" r="0.221"/>
			<circle fill="#FFFFFF" cx="35.948" cy="7.257" r="0.221"/>
			<circle fill="#FFFFFF" cx="36.643" cy="7.257" r="0.221"/>
			<circle fill="#FFFFFF" cx="37.337" cy="7.257" r="0.221"/>
			<circle fill="#FFFFFF" cx="38.031" cy="7.257" r="0.221"/>
			<circle fill="#FFFFFF" cx="38.725" cy="7.257" r="0.22"/>
			<circle fill="#FFFFFF" cx="39.419" cy="7.257" r="0.22"/>
		</g>
		<g>
			<circle fill="#FFFFFF" cx="13.733" cy="7.944" r="0.221"/>
			<circle fill="#FFFFFF" cx="14.428" cy="7.944" r="0.221"/>
			<circle fill="#FFFFFF" cx="15.122" cy="7.944" r="0.221"/>
			<circle fill="#FFFFFF" cx="15.816" cy="7.944" r="0.221"/>
			<circle fill="#FFFFFF" cx="16.511" cy="7.944" r="0.221"/>
			<circle fill="#FFFFFF" cx="17.205" cy="7.944" r="0.221"/>
			<circle fill="#FFFFFF" cx="17.899" cy="7.944" r="0.22"/>
			<circle fill="#FFFFFF" cx="18.593" cy="7.944" r="0.22"/>
			<circle fill="#FFFFFF" cx="19.287" cy="7.944" r="0.221"/>
			<circle fill="#FFFFFF" cx="19.981" cy="7.944" r="0.221"/>
			<circle fill="#FFFFFF" cx="20.676" cy="7.944" r="0.221"/>
			<circle fill="#FFFFFF" cx="21.37" cy="7.944" r="0.221"/>
			<circle fill="#FFFFFF" cx="22.064" cy="7.944" r="0.221"/>
			<circle fill="#FFFFFF" cx="22.758" cy="7.944" r="0.22"/>
			<circle fill="#FFFFFF" cx="23.453" cy="7.944" r="0.22"/>
			<circle fill="#FFFFFF" cx="24.146" cy="7.944" r="0.221"/>
			<circle fill="#FFFFFF" cx="24.841" cy="7.944" r="0.221"/>
			<circle fill="#FFFFFF" cx="25.535" cy="7.944" r="0.221"/>
			<circle fill="#FFFFFF" cx="26.229" cy="7.944" r="0.221"/>
			<circle fill="#FFFFFF" cx="26.924" cy="7.944" r="0.221"/>
			<circle fill="#FFFFFF" cx="27.618" cy="7.944" r="0.221"/>
			<circle fill="#FFFFFF" cx="28.312" cy="7.944" r="0.22"/>
			<circle fill="#FFFFFF" cx="29.006" cy="7.944" r="0.22"/>
			<circle fill="#FFFFFF" cx="29.701" cy="7.944" r="0.22"/>
			<circle fill="#FFFFFF" cx="30.395" cy="7.944" r="0.221"/>
			<circle fill="#FFFFFF" cx="31.089" cy="7.944" r="0.221"/>
			<circle fill="#FFFFFF" cx="31.783" cy="7.944" r="0.221"/>
			<circle fill="#FFFFFF" cx="32.478" cy="7.944" r="0.221"/>
			<circle fill="#FFFFFF" cx="33.172" cy="7.944" r="0.221"/>
			<circle fill="#FFFFFF" cx="33.866" cy="7.944" r="0.22"/>
			<circle fill="#FFFFFF" cx="34.56" cy="7.944" r="0.22"/>
			<circle fill="#FFFFFF" cx="35.254" cy="7.944" r="0.221"/>
			<circle fill="#FFFFFF" cx="35.948" cy="7.944" r="0.221"/>
			<circle fill="#FFFFFF" cx="36.643" cy="7.944" r="0.221"/>
			<circle fill="#FFFFFF" cx="37.337" cy="7.944" r="0.221"/>
			<circle fill="#FFFFFF" cx="38.031" cy="7.944" r="0.221"/>
			<circle fill="#FFFFFF" cx="38.725" cy="7.944" r="0.22"/>
			<circle fill="#FFFFFF" cx="39.419" cy="7.944" r="0.22"/>
		</g>
	</g>
	<path fill="#FFFFFF" d="M42.028,8.151c0,0.277-0.225,0.502-0.502,0.502l0,0c-0.277,0-0.502-0.225-0.502-0.502V5.755
		c0-0.277,0.225-0.502,0.502-0.502l0,0c0.277,0,0.502,0.225,0.502,0.502V8.151z"/>
</g>
</svg>
