<?xml version="1.0" encoding="utf-8"?>
<!-- Generator: Adobe Illustrator 16.0.0, SVG Export Plug-In . SVG Version: 6.00 Build 0)  -->
<!DOCTYPE svg PUBLIC "-//W3C//DTD SVG 1.1//EN" "http://www.w3.org/Graphics/SVG/1.1/DTD/svg11.dtd">
<svg version="1.1" id="Layer_1" xmlns="http://www.w3.org/2000/svg" xmlns:xlink="http://www.w3.org/1999/xlink" x="0px" y="0px"
	 width="175.748px" height="83.545px" viewBox="0 0 175.748 83.545" enable-background="new 0 0 175.748 83.545"
	 xml:space="preserve">
<g>
	<path fill-rule="evenodd" clip-rule="evenodd" fill="#E82133" d="M56.121,59.219c1.605-0.16,2.729-1.445,2.729-2.891V15.222
		c0-15.254,19.59-22.641,30.028-4.817c10.598,18.145,16.699,28.743,16.699,28.743V15.222c0-15.254,19.59-22.641,30.027-4.817
		c10.598,18.145,16.699,28.743,16.699,28.743V0.289h23.443v68.084c0,17.502-20.553,20.231-28.902,6.262
		c-4.979-8.189-17.824-29.385-17.824-29.385v23.123c0.16,17.502-20.393,20.231-28.902,6.262C95.14,66.445,82.455,45.25,82.455,45.25
		v20.874c0,10.759-6.263,16.379-16.058,16.379H43.757c-57.966,0-58.448-82.214-0.803-82.214H55.8v23.283c0,0-3.532,0-14.13,0
		c-23.604,0-26.174,35.647,1.605,35.647H56.121L56.121,59.219z"/>
	<path fill="#FFFFFF" d="M160.865,72.158c-1.502,0-2.984-0.791-4.01-2.21c-0.322-0.513-27.352-43.923-34.23-55.277
		c-0.656-0.878-1.645-1.26-2.518-0.975c-0.932,0.302-1.488,1.292-1.488,2.65v50.58c0,2.483-1.193,4.412-3.111,5.032
		c-1.855,0.599-3.902-0.19-5.219-2.011c-0.322-0.51-27.51-43.921-34.39-55.277c-0.654-0.877-1.64-1.257-2.519-0.975
		c-0.933,0.302-1.489,1.292-1.489,2.65v50.259c0,3.081-2.413,5.494-5.493,5.494H42.151c-21.923,0-31.908-15.87-31.908-30.615
		c0-8.014,2.777-15.521,7.819-21.138c5.67-6.315,13.666-9.653,23.125-9.653h14.934v2.637H41.188c-8.688,0-16.007,3.036-21.162,8.778
		c-4.607,5.132-7.145,12.014-7.145,19.376c0,19.223,15.173,27.979,29.271,27.979h24.246c1.602,0,2.856-1.255,2.856-2.857V16.346
		c0-2.521,1.27-4.499,3.314-5.16c1.971-0.636,4.181,0.158,5.497,1.979l0.059,0.089c6.82,11.262,34.077,54.782,34.352,55.221
		c0.594,0.818,1.463,1.219,2.219,0.974c0.805-0.26,1.287-1.203,1.287-2.522v-50.58c0-2.521,1.27-4.499,3.314-5.16
		c1.969-0.636,4.18,0.158,5.494,1.98l0.059,0.088c6.822,11.264,33.922,54.785,34.193,55.224c0.594,0.814,1.529,1.223,2.324,0.963
		c0.84-0.271,1.34-1.212,1.34-2.515V0.289h2.637v66.638c0,2.467-1.213,4.393-3.166,5.024
		C161.746,72.09,161.304,72.158,160.865,72.158z"/>
</g>
</svg>
