<?xml version="1.0" encoding="utf-8"?>
<!-- Generator: Adobe Illustrator 16.0.0, SVG Export Plug-In . SVG Version: 6.00 Build 0)  -->
<!DOCTYPE svg PUBLIC "-//W3C//DTD SVG 1.1//EN" "http://www.w3.org/Graphics/SVG/1.1/DTD/svg11.dtd">
<svg version="1.1" id="Layer_1" xmlns="http://www.w3.org/2000/svg" xmlns:xlink="http://www.w3.org/1999/xlink" x="0px" y="0px"
	 width="113.509px" height="113.965px" viewBox="0 0 113.509 113.965" enable-background="new 0 0 113.509 113.965"
	 xml:space="preserve">
<g>
	<path fill-rule="evenodd" clip-rule="evenodd" d="M56.755,0C25.41,0,0,25.513,0,56.982s25.41,56.982,56.755,56.982
		c31.344,0,56.754-25.513,56.754-56.982S88.099,0,56.755,0L56.755,0L56.755,0L56.755,0z M28.88,73.491v-4.717l0,0
		c-2.389,2.716-5.109,4.526-9.117,4.505c-9.484-0.052-17.174-7.72-17.174-17.242s7.689-17.241,17.174-17.241
		s17.734,7.658,17.734,17.182l0,0l0.01,17.453L28.88,73.491L28.88,73.491L28.88,73.491z M57.182,73.762
		c-9.483,0-17.733-7.658-17.733-17.182l0,0l-0.01-29.011h8.613l0.012,16.214l0,0c2.39-2.716,5.11-4.526,9.118-4.505
		c9.483,0.053,17.173,7.72,17.173,17.242S66.665,73.762,57.182,73.762L57.182,73.762L57.182,73.762L57.182,73.762z M94.108,73.357
		c-9.484,0-17.174-7.72-17.174-17.241c0-9.522,7.689-17.242,17.174-17.242c8.277,0,15.213,6.067,16.837,13.894l0,0l-8.636-0.028l0,0
		c-1.324-3.14-4.434-5.262-8.044-5.262c-4.813,0-8.716,3.917-8.716,8.75c0,4.834,3.902,8.752,8.716,8.752
		c3.61,0,6.759-2.099,8.082-5.24l0,0l8.635-0.04l0,0C109.381,67.557,102.407,73.357,94.108,73.357L94.108,73.357L94.108,73.357
		L94.108,73.357z"/>
	<path fill-rule="evenodd" clip-rule="evenodd" d="M56.961,47.309c-4.813,0-8.717,3.918-8.717,8.751s3.903,8.752,8.717,8.752
		s8.717-3.919,8.717-8.752S61.774,47.309,56.961,47.309L56.961,47.309L56.961,47.309L56.961,47.309z"/>
	<path fill-rule="evenodd" clip-rule="evenodd" d="M19.869,47.309c-4.813,0-8.717,3.918-8.717,8.751s3.903,8.752,8.717,8.752
		s8.717-3.919,8.717-8.752S24.683,47.309,19.869,47.309L19.869,47.309L19.869,47.309L19.869,47.309z"/>
</g>
</svg>
