<?xml version="1.0" encoding="utf-8"?>
<!-- Generator: Adobe Illustrator 16.0.0, SVG Export Plug-In . SVG Version: 6.00 Build 0)  -->
<!DOCTYPE svg PUBLIC "-//W3C//DTD SVG 1.1//EN" "http://www.w3.org/Graphics/SVG/1.1/DTD/svg11.dtd">
<svg version="1.1" id="Layer_1" xmlns="http://www.w3.org/2000/svg" xmlns:xlink="http://www.w3.org/1999/xlink" x="0px" y="0px"
	 width="577.58px" height="58.822px" viewBox="0 0 577.58 58.822" enable-background="new 0 0 577.58 58.822" xml:space="preserve">
<g>
	<path fill-rule="evenodd" clip-rule="evenodd" d="M94.869,0.004c0.608,0.202,1.014,0.405,0.812,1.217
		c-0.203,1.42-2.434,0.812-3.65,1.217c-3.043,1.015-2.028,5.071-2.435,7.91v11.763c0,5.274,0,11.562,0,16.835v11.562
		c0,1.621-0.202,3.447,1.015,4.056c0.812,1.217,3.245,0.405,4.867,0.608c2.435-0.405,3.448-3.043,5.071-4.259
		c0.608-2.231,1.622-4.057,2.027-6.288c1.217-4.056,0.608-9.329,2.028-13.386c0.812-0.203,1.015,0.405,1.218,1.014v22.514
		c0.405,0.608-0.203,1.622-0.203,2.231l-1.826,0.404H83.308c-0.203,0-1.623,0-2.028,0c-0.811-0.202-2.027,0-2.434-0.811
		c0.203-2.231,3.854-1.217,3.854-3.854V24.14c-0.203-3.65,0-8.316,0-11.764c0-3.448,1.015-8.113-1.42-9.938
		c-1.014-1.015-4.259,0.608-3.854-1.623c0.203-0.405,0.406-0.608,1.015-0.811H94.869L94.869,0.004z"/>
	<path fill-rule="evenodd" clip-rule="evenodd" d="M176.403,3.046c0.811,0.608,1.825,0,2.23-0.203c0.812-0.811,0-2.839,1.623-2.637
		l1.014,0.203v21.297c-0.405,0.202,0,1.419-0.607,1.419h-1.218c-0.405-7.706-1.014-15.616-6.692-19.268
		c-1.015-0.608-2.231-1.015-3.448-1.015c-2.435,0.203-3.854,2.029-4.868,3.854c-1.42,2.23-1.014,6.49,0.203,8.519
		c3.042,4.259,7.91,6.692,11.561,10.141c3.651,3.854,7.91,7.91,8.112,14.4c0.609,7.099-1.825,12.98-6.489,16.834
		c-2.638,1.825-6.693,2.027-9.736,0.811l-4.259-2.839c-1.014-0.405-1.217,0.608-1.623,1.015c0,1.217-0.202,2.027-1.014,2.434
		l-1.42-0.406l-0.202-11.764V32.659c0.405-0.203,1.419-0.203,1.825,0c0.405,8.315,0.608,17.037,6.692,21.296
		c1.826,1.217,4.058,2.231,6.693,1.42c3.854-1.623,5.273-5.882,5.273-10.547c-0.405-4.057-2.028-7.099-4.868-9.329
		c-3.853-4.666-9.531-7.099-13.183-12.17c-1.015-1.218-1.015-2.839-1.826-4.259c-2.027-6.693,0.608-13.387,4.463-17.443
		c1.824-1.217,4.665-2.027,7.099-1.42C173.563,0.815,175.185,1.83,176.403,3.046L176.403,3.046z"/>
	<path fill-rule="evenodd" clip-rule="evenodd" d="M15.972,0.207c0.405,0.203,1.014,0.203,1.217,1.015
		c-0.608,1.42-2.434,1.42-3.042,2.637s-0.608,3.447-0.203,4.867l2.434,14.4c1.015,4.665,2.028,9.533,3.245,14.197
		c0,0,0.406,0,0.609,0c1.622-6.896,2.839-13.792,4.056-20.688c-1.217-5.272-0.203-12.372-5.07-14.806
		c-0.405-1.015,0.203-1.623,1.217-1.623c2.839,0.203,11.966,0,14.197,0.203c0.203,0.405,0.203,1.217,0,1.623
		c-1.622,0.608-3.448,0.405-4.462,1.825c-2.23,3.651,0.811,7.505,0.608,11.764L33.211,28.4c0.609,2.839,0.609,6.287,2.231,8.518
		h0.203l3.042-13.184c1.622-5.476,2.434-11.357,3.651-17.036c0.405-1.825-0.203-3.043-1.42-3.854
		c-0.812-0.811-2.231-0.608-3.449-0.811c-0.202-0.406-0.202-1.218,0-1.623c3.043,0,12.373-0.203,13.59,0
		c0.607,0.203,0.405,1.217,0.203,1.623c-1.825,0.405-3.651,0.811-4.665,2.028C45.38,7.305,44.772,10.753,43.961,14l-3.448,15.82
		c-2.028,8.72-4.259,17.645-6.287,26.568c-0.405,0.609-1.42,0.609-1.826,0.203c-1.217-1.623-1.217-4.26-1.825-6.49l-3.042-17.442
		l-1.622-7.302h-0.406l-2.434,11.966c-1.217,5.882-2.434,11.765-3.65,17.849c-0.203,1.217-1.015,2.028-2.638,1.623
		c-1.42-0.406-0.811-2.231-1.217-3.448l-1.013-6.49L11.51,30.833L9.482,19.272C8.873,14.608,7.657,9.943,6.643,5.481
		c-0.203-1.218-1.42-2.028-2.231-2.84c-1.42-0.406-2.638,0.202-4.058-0.608C-0.05,1.626-0.253,0.41,0.557,0.207H15.972L15.972,0.207
		z"/>
	<path fill-rule="evenodd" clip-rule="evenodd" d="M62.215,1.626c0.812,5.477,2.434,10.345,3.245,16.023l4.259,20.89
		c1.015,4.665,1.42,9.33,2.637,13.589c0.608,1.826,1.825,3.043,3.854,3.246c0,0.608,0.608,1.014,0.203,1.42l-0.608,0.607H63.837
		c-0.405-0.607-2.434,0-3.245-0.607c-0.608-3.043,3.854-0.608,4.26-2.84c1.014-1.015,0.608-3.042,0.405-4.259
		c-1.014-2.028-0.202-5.478-2.23-6.896h-8.113l-0.812,0.405c-0.203,3.651-2.839,7.708-0.608,11.358
		c0.812,0.608,2.435,0.405,3.043,1.015l-0.203,1.217l-11.562,0.203c-1.216,0.404-1.014-1.42-0.608-1.826
		c2.435,0.203,3.854-1.014,5.071-2.231c1.42-3.244,1.42-7.302,2.433-10.951l2.231-14.198l2.029-11.764
		c1.014-4.867,1.622-9.938,2.636-15.009C58.767,0.004,62.621-0.604,62.215,1.626L62.215,1.626z"/>
	<path fill-rule="evenodd" clip-rule="evenodd" d="M126.306,0.207c0.203,0.406,0.608,1.217,0.203,1.623
		c-1.826,0.812-4.868,0-5.273,2.231c-0.406,6.287-0.406,10.952-0.406,17.24l-0.202,24.743h-0.203c1.217,3.043-1.623,9.127,2.84,9.33
		c1.014,0.203,3.042,0.203,4.056-0.406c4.057-3.244,5.273-8.721,6.085-14.197c0.608-2.84,0.203-6.287,1.014-9.127
		c0.406-0.203,1.218-0.203,1.623,0v24.744l-0.203,1.014c-3.245,0-6.692,0-9.127,0.203l-11.561-0.203h-6.287
		c-1.014,0-0.609-1.419-0.406-2.027c2.028-0.203,4.463,0,5.477-1.623c0.812-3.043,0.203-7.099,0.608-10.344
		c-0.405-2.839,0.203-5.882-0.202-9.127l0.202-2.637V5.683c-0.202-1.014-0.812-2.23-1.42-2.84c-1.217-1.42-6.084,0.609-4.259-2.637
		H126.306L126.306,0.207z"/>
	<path fill-rule="evenodd" clip-rule="evenodd" d="M212.099,0.41l0.405,1.014v23.325c-0.203,0.608-0.608,0.812-1.015,1.014
		l-1.014-0.405c0.202-7.302-0.812-13.792-2.839-19.674c-0.406-1.217-1.42-2.23-2.638-2.84c-1.014,0-2.028,0-2.434,0.812v22.716
		v20.485h-0.202c0.202,3.042-0.406,6.896,1.825,8.315c1.42,1.015,3.854-0.608,4.057,1.623c0,1.622-2.231,0.405-3.246,1.014
		c-1.014,0-3.447,0-4.461,0v-0.203c-1.42,0.608-2.84-0.405-4.058,0.203c-1.216-0.203-3.853-0.203-5.679-0.203
		c-0.608-0.203-0.405-1.419-0.202-1.825c2.231-0.405,4.665-0.608,5.476-3.042V4.061c-0.405-1.015-1.015-1.218-1.824-1.42
		c-3.043,0.812-3.854,4.057-4.666,7.099c-1.015,4.463-1.824,8.924-1.42,14.4c-0.404,0.608,0,1.622-1.014,1.622l-1.217-0.405V0.815
		C188.571,0.004,205.811,0.207,212.099,0.41L212.099,0.41z"/>
	<path fill-rule="evenodd" clip-rule="evenodd" d="M236.235,0.41c3.447,1.014,6.287,3.245,7.91,6.288
		c1.42,4.462,2.229,11.764-0.609,15.616c-1.42,2.028-3.042,3.854-5.272,5.274c-0.406,1.42,1.013,1.42,1.824,2.636
		c2.84,2.028,3.246,6.693,3.246,10.345c0-0.406-0.406-0.812-0.608-0.406c-0.203,0.608,0.202,1.015,0.811,1.015
		c0.203,3.447-0.405,7.301,0.406,10.343c0.203,0.608,0.608,1.015,1.217,1.218c1.014-0.203,1.216-1.218,1.622-1.825
		c-0.202-1.825,0.203-3.854,0.405-5.68c0.608,0.405,1.218-0.812,1.623,0c0.405,4.665,0.203,9.533-2.839,11.765
		c-1.218,0.811-2.435,1.216-4.26,1.014c-2.028-0.609-3.447-1.825-4.462-3.448l-0.608-3.854V36.107
		c-0.608-2.84-1.217-5.883-4.057-6.693c-1.217-0.405-3.245-0.812-4.259,0l-0.406,0.811v22.514c0.406,1.217,0.812,2.23,1.826,2.637
		c1.014,0.203,2.433,0,2.23,1.623l-0.406,0.607l-10.546,0.203c-0.405,0-1.015-0.406-1.217,0c-1.015-0.811-4.462,1.014-3.65-1.42
		c0-1.42,1.824-0.405,2.636-1.014c1.015-0.203,1.623-1.217,2.231-1.826c0-1.014,0.608-2.23,0.203-3.244l0.202-11.765
		c0-4.867-0.202-9.531,0-13.791c0-3.042,0-7.302-0.202-10.546c0.202-2.029,0-5.071,0.202-7.1c-0.405-1.825-0.811-3.65-2.434-4.26
		c-1.015-0.405-2.839,0.203-3.245-0.811c-0.202-0.812,0-1.42,0.812-1.623H236.235L236.235,0.41z"/>
	<path fill-rule="evenodd" clip-rule="evenodd" d="M279.03,0.41c1.42,0.608,0.608,3.448,0.812,4.868
		c0.608,3.244-0.406,6.896,0.202,9.735c-0.608,1.217,0.203,2.028,0,3.245c-0.405,1.42,0,3.448-0.405,4.664
		c-2.84,0.203-1.42-3.447-1.826-5.272c-0.608-6.287-2.84-11.967-8.112-14.604c-1.826-0.608-4.867-0.608-6.085,0.812
		c-1.217,3.651-0.608,9.735-0.608,13.184c-0.405,1.217,0.203,1.622,0,3.042c0,1.825,0,3.854,0,5.679
		c0.203,0.608-0.203,2.231,1.217,2.028c4.868-2.23,5.477-7.909,5.477-13.588c0-0.812,0.405-1.218,1.622-1.015l0.203,1.217
		c-0.405,2.637,0.406,5.882-0.203,8.721c0,2.84,0,6.694,0.203,9.735c-0.203,3.65-0.203,6.896,0,10.547
		c0,0.811-0.405,1.217-1.217,1.217c-1.42-1.217-0.406-4.665-1.015-6.49c-0.812-3.447-1.621-7.504-5.476-8.314l-0.608,0.404
		c-0.406,4.463-0.203,7.707-0.203,11.765c0,3.649,0.203,8.315,0,11.966c1.217,2.434,4.26,1.42,7.099,1.42
		c5.07-2.231,6.896-8.316,7.91-13.995l2.435,0.609v15.009l-0.608,0.607l-23.527,0.203c-1.623-0.406-4.462,0.203-6.085-0.406
		c-0.608-3.244,3.244-1.014,4.462-2.23c0.812-0.405,1.217-1.217,1.623-2.028V5.278c-0.406-1.015-1.015-2.028-1.826-2.435
		c-1.42-0.608-4.462,0.609-4.259-1.825l0.405-0.608H279.03L279.03,0.41z"/>
	<path fill-rule="evenodd" clip-rule="evenodd" d="M308.438,0.41c1.015,0.608,3.854-0.405,4.462,0.812
		c0,7.504,0.203,13.995,0,21.296c-0.203,0.608-1.217,0.608-1.623,0.203c-0.81-7.91-0.608-17.239-7.908-20.079
		c-1.623-0.608-3.449,0.202-5.071,0.202c-1.015,1.015-1.825,1.826-1.825,3.449v19.673c0.202,0.608,0.405,1.015,1.014,1.015
		c5.476-1.42,5.071-8.113,5.883-13.589c0.202-0.406,1.216-0.406,1.621,0c0,2.636,0,6.287,0,8.315c0.406,0.404,0,0.404,0,1.216
		c0.406,1.826,0,3.246,0.203,5.478c0,1.42,0,3.65,0,5.476c-0.608,3.042,0.203,6.896-0.608,9.735
		c-0.406,0.406-1.216,0.202-1.419-0.406c-0.406-4.665-0.406-10.749-4.058-13.589c-0.405-0.405-1.622-0.405-2.23,0l-0.405,1.42
		v13.183h0.202c0.203,3.246-1.216,8.52,1.217,10.548c1.623,0.812,3.854,1.014,5.882,0.608c4.463-1.42,5.68-6.085,7.302-10.142
		c-0.406-1.622,0.608-3.244,0.608-5.07l0.405-6.49c0.406-0.405,0.812-0.608,1.42-0.202l0.406,0.405
		c-0.608,3.042,1.217,7.91-1.623,9.126c-0.203,0.812-1.217,0.812-1.217,1.826c0.812-0.811,1.825-1.623,2.637-2.839h0.405
		l-0.202,11.763c-0.406,1.42,0.608,3.65-1.015,4.057c-3.447,0.405-6.692,0.203-10.141,0.203c-6.491-0.406-12.575-0.203-18.862-0.203
		c-0.608-0.203-0.608-1.42-0.203-1.825c1.826-0.608,4.26-0.203,5.476-2.028c1.826-1.42,0.812-5.477,1.015-8.113
		c0.203-4.462-0.405-10.343,0-14.4l-0.203-11.56v-14.4c-0.608-1.623-1.824-3.043-3.853-3.043c-1.218,0-2.638,0.203-2.231-1.42
		C284.1,0.207,305.193,0.41,308.438,0.41L308.438,0.41z"/>
	<path fill-rule="evenodd" clip-rule="evenodd" d="M411.674,6.292c2.636,3.65,3.447,8.924,4.664,13.994
		c1.42,10.546,0.406,22.715-3.651,30.422c-1.622,3.043-3.853,5.274-6.49,6.896c-2.433,0.608-6.084,0.812-7.707-0.811
		c-7.707-7.099-9.531-18.255-9.329-31.234c0.406-8.722,3.042-17.038,8.113-22.919c2.027-2.231,5.881-2.839,9.126-1.826
		C408.428,2.235,410.456,4.061,411.674,6.292L411.674,6.292z"/>
	<path fill-rule="evenodd" clip-rule="evenodd" d="M343.932,1.018l0.405,0.608l0.203,15.617c-0.608,2.638,0,5.882-0.406,8.519
		c-0.608,0.608-1.217,0-1.622-0.202l-0.609-9.938c-0.811-4.665-1.622-8.924-4.259-12.169c-0.608-0.609-2.028-0.609-2.434,0
		l-0.812,0.811v14.4v0.203v11.561v23.121c0.405,2.84,4.463,1.218,6.084,2.435c0.203,1.015-0.202,1.622-1.014,1.825
		c-5.273,0.608-10.546-0.406-15.819,0c-1.217,0.203-1.217-1.217-0.812-1.825c1.825-0.405,4.057-0.203,4.665-2.028l0.202-22.716
		V4.466c-0.405-0.608-0.811-1.217-1.622-1.42c-3.65,0.406-3.854,4.057-4.868,6.693l-1.622,10.952
		c-0.406,1.825,0.405,4.259-0.608,5.273l-1.218-0.203l-0.202-11.357c0-4.057-0.202-9.127,0.202-13.184
		C319.187,0.207,340.483,0.815,343.932,1.018L343.932,1.018z"/>
	<path fill-rule="evenodd" clip-rule="evenodd" d="M387.741,0.815c1.015-0.202,1.218,0.812,0.812,1.42
		c-2.028,0.406-4.057,0.406-5.274,1.826c-1.419,3.244,0.203,7.504-0.404,10.952c0.202,0.608-0.203,1.825,0,2.839
		c0.202,2.638,0,5.679,0,8.113c0,0.812,0,2.231,0,3.448v19.268c-1.217,4.057-3.043,8.113-7.1,9.127
		c-4.056,1.014-6.693-0.811-8.518-2.84c-2.231-3.244-4.666-7.504-2.84-12.371c0.812-1.826,2.231-2.84,4.26-3.043
		c1.014,0.405,2.23,0.812,2.636,1.825c-0.202,1.825,1.015,3.854-0.202,5.07c-0.203,1.623-2.434,1.623-2.434,3.448
		c0.202,2.434,1.216,4.462,3.244,5.273c1.826,0.406,2.84-0.405,3.854-1.42c1.42-4.056,0.609-10.547,0.609-15.009l0.202-11.763V6.089
		c-0.406-1.217-0.812-2.231-1.825-3.246c-1.217-1.014-4.057,0.406-4.665-1.217l0.608-1.217
		C376.991,0.41,381.454,1.018,387.741,0.815L387.741,0.815z"/>
	<path fill-rule="evenodd" clip-rule="evenodd" d="M432.159,1.018c0.811-0.405,2.434-0.608,3.042,0.405
		c0.202,1.218-0.608,1.42-1.419,1.623c-1.218,0-2.029,0.608-2.84,1.217c-0.812,1.42-0.812,3.448-0.812,5.477v23.121l-0.203,0.203
		c0.405,6.085,0,10.141,0.405,16.429c0.609,2.434,2.029,4.665,4.26,5.882c1.825,0.405,4.26,0.203,5.477-1.217
		c2.027-1.42,2.433-3.65,2.839-5.882V27.994l-0.203-1.217l0.203-17.849c0.203-1.825-0.203-3.854-1.217-5.273
		c-1.015-0.812-2.839-0.812-4.057-1.014l0.203-1.42l10.749-0.203c0.608,0,1.014,0.608,1.014,1.015c0,1.014-1.621,0.405-2.028,0.811
		c-1.013,0.203-2.027,1.015-2.027,2.029l-0.608,3.244v40.564c-0.405,3.447-2.435,6.287-4.867,8.316
		c-1.623,1.419-4.868,0.811-6.693,1.216c-4.057-0.812-7.504-3.65-8.722-7.505c-2.434-5.07-0.811-13.386-1.42-18.861V5.683
		c-0.405-1.217-1.014-2.028-2.028-2.637c-1.014-0.405-2.839,0-2.839-1.217c-0.202-1.217,1.217-0.608,1.825-1.015L432.159,1.018
		L432.159,1.018z"/>
	<path fill-rule="evenodd" clip-rule="evenodd" d="M464.812,1.221c6.085-0.812,12.169,0.405,14.604,5.273
		c2.028,3.245,3.245,8.315,1.825,12.777c-1.825,3.245-3.245,7.302-6.896,8.925c0,1.825,2.027,2.23,2.839,3.65
		c0.812,1.623,1.623,3.043,1.623,5.273l0.405,10.344c0,1.825-0.203,4.867,1.623,5.679c2.433-0.812,1.825-4.462,2.23-7.099
		c0.202-0.203,1.014-0.203,1.217,0c0.608,4.463-0.405,8.722-3.042,11.357c-1.42,0.609-3.245,1.42-4.868,0.812
		c-1.825,0-1.825-2.027-3.042-3.042l-0.608-5.882V37.526c-0.203-2.636-0.405-5.679-2.435-7.099c-1.42-1.217-4.056-1.623-6.084-0.812
		l-0.405,0.608c-0.812,7.91,0.202,14.4,0,22.716c0.202,1.218,0.405,2.638,1.825,3.246c1.217,0.202,1.825,0,3.244,0.405
		c0.203,0.406,0,1.014,0.203,1.622l-10.749,0.203l-5.882-0.405c-0.405-0.406-0.405-1.42,0-1.623c1.826,0,3.245-0.608,4.26-1.622
		l0.608-2.028V6.089c-0.406-1.217-0.608-2.435-1.826-3.043c-1.013-0.405-2.839,0.203-2.839-1.217
		c0.608-1.42,1.826-0.203,3.245-0.812C458.93,1.221,461.364,1.221,464.812,1.221L464.812,1.221z"/>
	<path fill-rule="evenodd" clip-rule="evenodd" d="M494.626,1.018c0.406,0.405,1.218,0.608,1.42,1.217
		c4.057,11.358,7.099,23.122,11.764,34.075c1.217-0.203-0.406-1.42,0.405-2.029c-0.202-4.259,0.203-8.315-0.202-12.777
		c0.405-2.434,0-4.26,0.202-6.896c-0.608-0.405,0.406-1.015-0.202-1.217c0.405-2.435-0.203-5.882-0.203-8.722
		c-1.015-1.42-2.839-1.826-4.867-1.826c0-0.202-0.406-1.42,0.405-1.622c3.854,0,7.505,0,11.764,0
		c0.811,0.202,0.405,1.014,0.405,1.622c-1.217,0.609-3.042,0.406-3.854,1.623l-0.811,2.028l-0.203,10.952V47.87
		c0,1.015,0,3.246,0,4.259c-0.203,1.623,0.203,4.26-0.203,5.883c-0.405,0.405-1.42,0.607-1.825,0.202
		c-1.42-1.825-1.218-4.867-2.638-6.693c-2.229-5.476-3.447-11.763-5.679-17.036l-4.056-11.562c-0.608-2.027-1.623-3.65-2.231-5.476
		l-0.405,0.203c-0.608,2.434-0.608,4.461-0.203,6.896l-0.203,10.953v18.05c0.406,1.015,0.812,2.029,1.826,2.638
		c1.014,0.608,3.447-0.608,3.447,1.216l-0.203,0.812l-11.357,0.203c-0.812-0.203-1.825-0.203-1.825-1.217
		c0.812-1.622,4.26,0,5.07-2.028c0.811-1.623,0.811-3.854,0.811-6.084l-0.201-23.325V6.292c-0.406-2.84-3.246-3.043-5.478-3.651
		c-0.608-0.406,0-1.015,0-1.42C488.339,0.815,491.381,1.018,494.626,1.018L494.626,1.018z"/>
	<path fill-rule="evenodd" clip-rule="evenodd" d="M534.176,11.363c0.812,5.679,2.637,10.748,3.245,16.631l3.651,16.834
		c1.216,4.057,1.014,9.33,4.867,11.358c1.015,0.202,2.23,0.202,1.623,1.825l-0.203,0.405c-4.665,0.202-10.952,0.405-15.819-0.203
		c-1.015-2.839,2.433-1.622,3.649-2.434c1.015-0.812,1.218-2.434,1.015-4.26c-0.608-2.839-1.015-5.882-2.231-8.112
		c-3.244-0.203-7.099-0.203-9.938,0.203c-0.812,1.014-1.014,2.637-1.217,4.259c-0.406,2.435-2.028,6.085,0.405,8.113
		c1.015,1.015,5.07-0.812,3.65,2.23c-3.244,0.608-7.099,0.405-10.343,0.405c-1.015-0.405-3.246,0.406-2.638-1.621
		c0-1.218,2.028-0.406,2.638-0.812c1.824-1.015,2.636-2.84,3.041-4.666l2.435-13.791l3.043-17.442l1.824-10.142
		c0.608-3.042,1.015-6.49,2.435-8.924l2.637,0.202L534.176,11.363L534.176,11.363z"/>
	<path fill-rule="evenodd" clip-rule="evenodd" d="M565.005,1.221c0.811,0.202,1.622,0.405,1.622,1.42
		c-0.405,1.42-3.042,0.608-4.057,1.42c-1.419,0.608-1.419,2.434-1.824,3.65V52.94c-0.609,1.42,0.405,2.435,1.217,3.246
		c1.622,1.014,5.273,0.812,7.301,0.202c3.245-2.028,3.854-6.084,5.273-9.735l1.42-10.546c0.203-0.406,1.015-0.406,1.622,0v18.861
		h-0.203c0,1.015,0.203,2.637-0.202,3.65c-1.014,0.406-2.637,0-3.448,0.203l-0.608-0.203l-10.951,0.203
		c-4.26-0.203-8.925,0.405-12.373-0.608c-0.405-0.202-0.405-1.014-0.203-1.419c1.218-0.812,3.854,0.203,4.463-1.623l0.203-2.028
		V5.278c-1.015-2.028-3.246-2.231-5.273-2.231c0-0.812-0.406-1.623,0.405-1.825H565.005L565.005,1.221z"/>
	<path fill-rule="evenodd" clip-rule="evenodd" fill="#FFFFFF" d="M408.023,6.495l0.405,3.854v12.777l0.203,0.203l-0.203,26.367
		c-0.405,2.028-1.42,3.447-2.434,5.07c-1.42,1.217-3.854,1.014-5.273,0.202c-3.042-2.028-3.651-5.881-3.447-9.33
		c-0.204-2.839,0.811-5.272,0-7.909c0.202-3.042,0-6.49,0.405-9.735c-0.405-0.203,0-1.42-0.405-1.623
		c0.811-1.014-0.204-1.622,0-2.637c0.202-5.07,0-8.924,0-14.806c0.811-2.636,2.027-5.679,4.867-6.287
		C405.183,2.438,406.805,4.263,408.023,6.495L408.023,6.495z"/>
	<path fill-rule="evenodd" clip-rule="evenodd" fill="#FFFFFF" d="M234.612,3.046c5.679,3.448,3.448,12.17,3.245,18.66
		c-0.405,1.824-1.42,3.244-2.84,4.462c-1.622,1.014-5.07,0.812-6.692,0.202l-0.203-20.688c0.203-1.42,0.812-2.84,2.637-2.84
		C231.975,2.438,233.192,3.046,234.612,3.046L234.612,3.046z"/>
	<path fill-rule="evenodd" clip-rule="evenodd" fill="#FFFFFF" d="M473.737,6.292c0.608,1.419,0.608,3.447,0.811,4.867
		l-0.202,10.749c-0.608,2.028-1.218,3.854-3.043,4.665c-1.622,0.608-5.273,0.608-7.302,0c-0.202-7.707-0.202-13.589-0.202-21.296
		c0.202-1.015,1.014-2.028,2.23-2.435C469.883,2.033,471.911,4.061,473.737,6.292L473.737,6.292z"/>
	<path fill-rule="evenodd" clip-rule="evenodd" fill="#FFFFFF" d="M529.106,18.258c1.217,7.707,3.651,14.603,4.664,22.513
		l-0.404,0.406l-8.113,0.202l-1.014-0.608c0.203-2.231,0.608-4.664,1.217-7.099l1.622-10.75c0.405-1.621,0.608-3.447,1.217-4.867
		L529.106,18.258L529.106,18.258z"/>
	<path fill-rule="evenodd" clip-rule="evenodd" fill="#FFFFFF" d="M60.998,29.008l2.029,10.951c-1.42,1.623-4.26,0-6.49,0.609
		l-1.623-0.203l0.203-2.637l1.825-11.561l1.42-7.505l0.405,0.203L60.998,29.008L60.998,29.008z"/>
</g>
</svg>
