<?xml version="1.0" encoding="utf-8"?>
<!-- Generator: Adobe Illustrator 16.0.0, SVG Export Plug-In . SVG Version: 6.00 Build 0)  -->
<!DOCTYPE svg PUBLIC "-//W3C//DTD SVG 1.1//EN" "http://www.w3.org/Graphics/SVG/1.1/DTD/svg11.dtd">
<svg version="1.1" id="Layer_1" xmlns="http://www.w3.org/2000/svg" xmlns:xlink="http://www.w3.org/1999/xlink" x="0px" y="0px"
	 width="78.606px" height="102.693px" viewBox="0 0 78.606 102.693" enable-background="new 0 0 78.606 102.693"
	 xml:space="preserve">
<g>
	<path fill="#58595B" d="M56.119,0.157c0,0.095-0.076,0.172-0.172,0.172h-4.255c-0.095,0-0.173-0.077-0.173-0.172l0,0
		c0-0.095,0.078-0.172,0.173-0.172h4.255C56.043-0.015,56.119,0.062,56.119,0.157L56.119,0.157z"/>
	<path fill="#0C436A" d="M78.606,3.542v95.727c0,0.897-0.346,1.714-0.911,2.325c-0.626,0.676-1.52,1.1-2.513,1.1H3.424
		C1.533,102.693,0,101.16,0,99.269V3.542c0-1.891,1.533-3.424,3.424-3.424h71.759C77.073,0.118,78.606,1.651,78.606,3.542z"/>
	<rect x="7.71" y="9.46" fill="#FFFFFF" width="63.272" height="84.264"/>
	<path fill="none" stroke="#58595B" stroke-miterlimit="10" d="M40.198,98.794c0,0.202-0.165,0.368-0.368,0.368h-0.934
		c-0.203,0-0.368-0.166-0.368-0.368V97.86c0-0.203,0.165-0.368,0.368-0.368h0.934c0.203,0,0.368,0.165,0.368,0.368V98.794z"/>
	<circle fill="#FFFFFF" cx="39.363" cy="4.746" r="0.586"/>
	<circle fill="#FFFFFF" cx="39.371" cy="98.314" r="2.473"/>
</g>
</svg>
